 <svg  version="1.0" xmlns="http://www.w3.org/2000/svg"  width="900.000000pt" height="258.000000pt" viewBox="0 0 900.000000 258.000000"  preserveAspectRatio="xMidYMid meet">  <g transform="translate(0.000000,258.000000) scale(0.100000,-0.100000)" fill="#ffffff" stroke="none"> <path d="M3355 2510 c-102 -7 -211 -22 -299 -42 -26 -6 -74 -14 -105 -19 -31 -4 -78 -13 -106 -19 -27 -6 -84 -18 -125 -26 -41 -9 -98 -22 -126 -30 -28 -8 -62 -14 -76 -14 -14 0 -42 -7 -61 -15 -20 -8 -48 -15 -63 -15 -14 0 -47 -6 -73 -14 -50 -16 -122 -34 -186 -47 -77 -15 -140 -30 -175 -41 -19 -7 -53 -15 -75 -19 -22 -5 -67 -13 -100 -20 -33 -6 -64 -15 -70 -19 -5 -5 -32 -11 -58 -15 -29 -5 -46 -12 -44 -19 8 -25 94 -18 392 29 50 8 106 16 125 19 42 5 140 24 195 37 22 6 60 14 85 18 25 4 55 13 67 19 12 7 34 12 50 12 15 1 39 7 53 15 14 8 36 14 49 15 13 0 44 7 70 15 56 18 133 37 226 58 341 77 373 79 895 75 501 -5 588 -13 835 -75 103 -26 152 -42 280 -90 90 -34 235 -116 368 -207 37 -25 72 -46 77 -46 6 0 10 -3 10 -7 0 -5 14 -16 30 -25 17 -9 30 -24 30 -33 0 -18 2 -18 -78 -5 -49 8 -76 20 -115 50 -121 90 -432 260 -478 260 -6 0 -25 6 -42 14 -67 30 -220 61 -402 83 -89 11 -256 17 -534 20 -345 4 -418 2 -500 -12 -53 -9 -110 -23 -128 -31 -17 -8 -36 -14 -43 -14 -6 0 -53 -20 -104 -45 -52 -25 -96 -45 -100 -45 -4 0 -24 -11 -46 -25 -63 -40 -48 -71 45 -95 33 -9 84 -27 130 -45 86 -35 187 -63 273 -75 34 -5 79 -14 100 -20 61 -17 292 -29 762 -40 245 -5 528 -14 630 -20 102 -6 325 -11 495 -11 171 0 337 -5 370 -10 33 -5 160 -13 283 -18 123 -5 240 -12 260 -15 20 -3 136 -11 257 -17 218 -10 388 -28 475 -49 100 -25 137 -33 175 -39 22 -4 50 -13 62 -19 12 -7 32 -12 45 -12 13 0 33 -7 44 -15 10 -8 27 -15 37 -15 11 0 31 -6 45 -14 15 -8 67 -31 116 -51 48 -20 109 -48 135 -62 148 -82 311 -194 311 -215 0 -15 -18 -74 -36 -116 -28 -67 -13 -204 32 -295 8 -16 14 -34 14 -42 0 -7 7 -18 15 -25 8 -7 15 -21 15 -31 0 -18 -10 -19 -147 -19 -145 0 -191 -7 -335 -47 -71 -20 -121 -57 -98 -73 8 -6 24 -8 35 -6 11 3 67 8 125 11 410 23 503 38 515 82 3 13 -2 40 -11 60 -60 145 -88 304 -65 379 34 111 34 114 23 138 -13 28 -166 146 -274 211 -65 39 -192 104 -258 133 -19 8 -48 21 -65 28 -16 7 -42 16 -58 20 -15 3 -30 10 -33 15 -3 5 -15 9 -27 9 -12 0 -35 7 -51 15 -15 8 -35 15 -44 15 -8 0 -38 6 -66 14 -82 23 -147 37 -216 46 -36 4 -96 13 -135 19 -131 20 -349 34 -705 45 -384 13 -367 10 -475 75 -27 17 -59 35 -70 41 -11 6 -33 19 -50 30 -16 11 -37 23 -45 27 -15 7 -150 84 -180 102 -31 20 -277 139 -315 153 -107 40 -192 66 -258 78 -26 5 -62 13 -80 19 -61 18 -172 33 -322 41 -174 10 -783 10 -930 0z m774 -180 c139 -6 257 -13 262 -16 5 -3 46 -11 92 -19 125 -20 274 -59 292 -76 5 -5 16 -9 23 -9 27 0 166 -72 265 -137 54 -35 105 -67 113 -70 8 -3 14 -12 14 -20 0 -13 -38 -14 -297 -9 -164 3 -365 11 -448 16 -82 5 -242 10 -355 11 -267 1 -495 14 -595 33 -44 8 -107 20 -140 26 -32 6 -64 15 -70 19 -5 5 -23 11 -40 14 -41 7 -193 63 -211 78 -26 22 -14 34 76 77 135 64 199 82 304 83 50 1 134 5 186 9 52 4 136 6 185 4 50 -2 204 -9 344 -14z"/> <path d="M4704 2106 c-11 -29 2 -69 28 -89 21 -16 34 -18 65 -12 l38 8 -32 10 c-25 7 -33 16 -33 33 0 28 -7 27 95 10 44 -7 97 -23 119 -35 21 -12 41 -20 44 -17 9 10 -71 76 -92 76 -12 1 -32 7 -46 15 -35 20 -179 20 -186 1z"/> <path d="M1828 2085 c-3 -3 -124 -10 -268 -15 -210 -8 -267 -13 -280 -25 -9 -8 -24 -15 -33 -15 -9 0 -17 -5 -17 -11 0 -7 33 -9 108 -5 239 13 634 16 757 6 72 -5 185 -14 253 -20 67 -5 128 -12 134 -16 6 -4 38 -10 72 -14 33 -4 84 -13 111 -20 109 -28 191 -51 205 -59 9 -5 31 -12 50 -16 19 -4 40 -11 45 -14 16 -11 96 -33 102 -28 10 11 -36 44 -112 80 -44 21 -88 43 -97 48 -10 5 -23 9 -29 9 -6 0 -25 6 -42 13 -51 22 -133 47 -152 47 -9 0 -47 6 -84 14 -130 29 -327 46 -522 46 -108 0 -198 -2 -201 -5z"/> <path d="M1070 1979 c0 -12 8 -31 17 -41 21 -23 21 -76 0 -115 -45 -85 -74 -210 -82 -353 -6 -109 -19 -160 -39 -160 -7 0 -23 -11 -36 -25 -22 -23 -23 -29 -17 -122 7 -98 26 -169 59 -211 30 -41 79 -58 185 -66 54 -3 116 -11 138 -16 22 -5 68 -10 103 -10 34 0 119 -10 187 -21 125 -22 155 -21 155 4 0 12 -22 24 -115 62 -16 7 -43 18 -60 25 -44 18 -230 50 -300 50 -90 1 -215 26 -235 47 -24 24 -50 108 -50 156 l0 40 138 -7 c75 -4 157 -11 182 -16 25 -5 100 -12 168 -16 120 -7 122 -7 122 14 0 22 -4 23 -100 36 -19 3 -71 12 -115 21 -44 9 -93 18 -110 21 -95 15 -151 28 -161 35 -15 12 -7 195 12 284 22 99 45 176 61 203 42 69 2 151 -99 200 -5 2 -8 -6 -8 -19z"/> <path d="M1250 1926 c0 -7 7 -19 15 -26 20 -16 19 -51 -2 -88 -31 -54 -21 -58 154 -65 87 -4 186 -10 221 -13 l62 -7 0 27 c0 21 -8 29 -42 45 -78 34 -179 70 -228 81 -45 10 -97 28 -133 46 -36 18 -47 18 -47 0z"/> <path d="M2119 1759 c-2 -8 -2 -252 1 -544 l5 -530 240 3 c142 2 254 8 275 15 53 17 95 51 119 97 20 39 21 53 21 410 0 322 -2 375 -17 412 -23 59 -47 88 -96 116 -41 24 -50 25 -293 30 -208 4 -252 2 -255 -9z m191 -135 c0 -4 -10 -23 -22 -43 l-23 -36 -3 28 c-5 40 4 57 28 57 11 0 20 -3 20 -6z m182 -56 c16 -21 18 -54 18 -342 0 -315 0 -320 -22 -343 -15 -16 -33 -23 -60 -23 l-38 0 0 363 c0 200 3 367 8 371 14 14 76 -3 94 -26z m-221 -320 c1 -274 5 -346 24 -374 20 -31 19 -44 -4 -44 -31 0 -39 21 -42 110 -7 170 1 520 11 520 6 0 10 -78 11 -212z m389 -271 c0 -67 -25 -129 -54 -135 -20 -4 -21 21 -2 37 8 6 17 42 21 79 8 72 11 82 26 82 5 0 9 -28 9 -63z"/> <path d="M2846 1761 c-2 -3 0 -46 5 -96 10 -115 10 -786 0 -885 -4 -41 -6 -80 -4 -85 2 -7 86 -10 241 -8 130 1 240 2 244 2 13 1 -1 204 -15 213 -15 10 -70 9 -124 -1 -23 -4 -47 -5 -54 -1 -8 5 -12 44 -13 120 -2 118 7 146 43 136 51 -14 128 -16 137 -4 6 7 8 54 6 105 -5 105 -5 106 -97 91 -32 -5 -64 -7 -70 -4 -15 6 -27 198 -13 207 6 4 50 4 99 1 l89 -5 0 112 0 111 -235 -1 c-130 -1 -237 -5 -239 -8z m210 -152 c-3 -17 -17 -44 -31 -61 -38 -45 -35 -125 5 -188 17 -26 39 -55 50 -65 11 -10 20 -30 20 -45 0 -15 -9 -35 -20 -45 -11 -10 -33 -39 -50 -65 -26 -40 -30 -56 -30 -115 0 -58 4 -75 30 -117 38 -61 39 -88 5 -88 -14 0 -33 8 -43 18 -16 16 -17 46 -16 390 2 341 3 375 19 393 10 10 29 19 43 19 22 0 24 -3 18 -31z"/> <path d="M3389 1768 c-3 -10 -4 -1057 -1 -1070 3 -14 20 -16 119 -16 l116 0 -6 272 c-4 184 -10 282 -18 300 -11 23 -10 29 2 37 36 23 55 3 62 -66 6 -59 22 -143 36 -188 16 -56 32 -121 40 -167 10 -55 30 -137 42 -167 8 -22 14 -23 118 -23 81 0 112 4 120 14 9 11 9 40 2 118 -6 56 -8 164 -5 238 3 74 2 267 -1 428 l-7 292 -109 0 c-59 0 -110 -4 -113 -8 -2 -4 0 -89 5 -187 16 -301 16 -350 0 -350 -8 0 -17 7 -22 15 -24 47 -39 91 -39 116 0 15 -4 41 -10 58 -5 17 -16 58 -25 91 -9 33 -22 81 -30 106 -8 26 -15 54 -15 63 0 8 -7 34 -16 56 l-16 40 -114 0 c-63 0 -114 -1 -115 -2z m186 -270 c46 -95 45 -127 -2 -189 -20 -27 -40 -49 -44 -49 -15 0 -19 36 -19 155 0 182 11 196 65 83z m316 -275 c14 -36 7 -309 -8 -324 -15 -15 -24 4 -63 120 -38 115 -38 137 2 189 38 49 54 52 69 15z"/> <path d="M4068 1760 c-1 -5 -1 -54 2 -107 l5 -98 74 0 75 0 0 -435 1 -435 132 -1 c72 -1 135 1 140 5 5 3 7 183 3 431 -3 234 -4 427 -2 430 2 3 40 3 84 2 45 -2 84 1 87 6 3 6 5 55 3 111 l-3 101 -299 0 c-185 0 -300 -4 -302 -10z m366 -130 c10 -10 6 -19 -44 -108 -27 -49 -28 -49 -46 -6 -9 21 -25 49 -35 63 -31 39 -25 59 19 64 46 5 93 0 106 -13z m-61 -527 c-4 -10 -9 -11 -16 -4 -5 5 -7 18 -3 28 6 14 9 15 16 4 4 -8 6 -21 3 -28z"/> <path d="M5039 1767 c-1 -1 -3 -51 -4 -111 l-2 -109 89 6 89 6 -1 -422 c-1 -232 -1 -429 -1 -438 1 -13 21 -15 136 -15 84 1 135 5 136 11 0 5 1 201 2 435 l2 425 59 -3 c105 -6 103 -7 104 107 1 77 -2 100 -13 105 -14 5 -594 8 -596 3z m383 -135 c9 -9 4 -22 -19 -56 -17 -24 -34 -53 -38 -65 -8 -28 -32 -27 -41 2 -4 12 -18 39 -30 59 -29 45 -30 65 -6 72 29 8 122 0 134 -12z m-69 -708 c-4 -12 -8 -13 -14 -3 -9 15 -2 32 11 24 5 -3 6 -13 3 -21z"/> <path d="M5697 1762 c-2 -4 -5 -248 -6 -542 l-3 -535 239 1 238 2 0 109 0 108 -103 -3 -103 -2 3 127 c3 112 5 128 20 127 9 -1 46 -5 81 -8 82 -9 85 -4 77 119 l-5 90 -50 -4 c-27 -3 -66 -5 -85 -5 l-35 -1 0 105 0 105 95 0 95 0 3 103 c1 56 1 103 0 103 -14 6 -458 7 -461 1z m187 -122 c14 -5 26 -14 26 -20 0 -6 -17 -33 -37 -60 -41 -55 -55 -53 -67 6 -5 23 -1 37 14 57 24 30 28 31 64 17z m-30 -254 c3 -14 24 -46 46 -71 22 -25 40 -55 40 -65 0 -11 -19 -41 -42 -68 -24 -27 -48 -57 -54 -68 -7 -10 -16 -15 -20 -11 -9 9 -17 272 -9 295 8 21 33 13 39 -12z m-14 -392 c0 -22 -2 -25 -15 -14 -12 10 -13 16 -4 26 16 20 19 18 19 -12z m49 -128 c20 -13 13 -46 -11 -46 -48 0 -74 61 -47 112 10 19 12 18 29 -19 10 -23 23 -44 29 -47z"/> <path d="M6234 1756 c-2 -6 -3 -249 -2 -541 l3 -530 133 -2 132 -2 -5 112 c-11 214 -31 367 -50 367 -6 0 -22 -20 -35 -45 -51 -93 -74 -30 -66 175 5 127 11 170 27 170 4 0 13 -17 18 -38 7 -22 29 -55 56 -82 l46 -45 54 30 c30 16 57 27 59 24 3 -3 12 -52 20 -110 8 -57 18 -112 22 -122 12 -32 -18 -18 -68 34 -39 38 -56 49 -76 47 -36 -4 -38 -24 -4 -31 34 -7 42 -27 42 -101 0 -27 4 -63 9 -80 11 -36 28 -118 41 -195 5 -29 14 -66 20 -80 l11 -27 145 -1 c79 0 147 3 150 8 2 4 0 16 -5 26 -20 35 -51 116 -51 130 0 8 -6 29 -14 46 -8 18 -16 43 -19 57 -3 14 -10 40 -16 58 -28 82 -33 99 -42 135 -5 21 -13 45 -18 55 -26 52 -32 92 -19 130 7 20 18 46 25 57 7 11 13 31 13 45 0 14 5 31 11 37 6 6 14 26 19 44 11 46 30 98 46 131 8 14 14 34 14 45 0 10 7 26 15 36 28 38 11 43 -123 42 l-126 -2 -19 -64 c-11 -35 -26 -89 -34 -119 -8 -30 -19 -69 -24 -86 -5 -17 -9 -49 -9 -71 0 -46 -31 -93 -61 -93 -22 0 -25 34 -8 90 10 35 30 331 23 339 -10 11 -256 8 -260 -3z"/> <path d="M4785 1721 c-8 -13 77 -25 120 -17 20 4 33 11 30 17 -8 12 -142 12 -150 0z"/> <path d="M1965 1659 c-4 -6 -5 -13 -2 -16 7 -7 27 6 27 18 0 12 -17 12 -25 -2z"/> <path d="M7182 1538 c107 -104 152 -177 169 -278 24 -136 25 -144 6 -220 -35 -142 -99 -243 -211 -337 -61 -50 -79 -73 -58 -73 49 0 202 145 244 232 63 127 62 124 62 268 1 88 -3 142 -10 151 -7 8 -20 42 -30 77 -15 49 -30 75 -74 121 -61 65 -131 121 -150 121 -7 0 16 -28 52 -62z"/> <path d="M7480 1549 c0 -11 16 -40 35 -63 19 -24 35 -46 35 -50 0 -36 95 -96 151 -96 15 0 49 -7 75 -16 52 -18 74 -13 74 15 0 15 -29 37 -111 86 -61 36 -114 65 -119 65 -5 0 -10 3 -12 8 -4 9 -107 72 -119 72 -5 0 -9 -9 -9 -21z"/> <path d="M1918 1530 c-35 -29 -98 -112 -98 -129 0 -5 -7 -14 -15 -21 -8 -7 -15 -25 -15 -40 0 -15 -7 -33 -16 -41 -13 -11 -15 -36 -12 -170 2 -109 7 -162 16 -171 6 -6 12 -20 12 -29 0 -10 6 -24 13 -31 6 -7 22 -34 35 -60 28 -56 121 -158 145 -158 9 0 17 -4 17 -10 0 -5 7 -10 16 -10 10 0 -4 21 -39 57 -87 91 -108 116 -119 146 -5 15 -14 27 -19 27 -5 0 -9 9 -9 21 0 11 -5 30 -12 42 -13 25 -20 105 -19 216 1 74 25 175 48 199 7 7 13 18 13 24 0 11 70 109 97 136 14 15 17 32 5 32 -4 0 -24 -14 -44 -30z"/> <path d="M6895 1463 c-4 -16 -10 -36 -16 -45 -5 -10 -9 -28 -9 -40 -1 -13 -7 -34 -15 -48 -19 -33 -19 -59 1 -67 20 -8 34 13 34 53 0 17 7 48 15 67 17 41 20 107 5 107 -5 0 -12 -12 -15 -27z"/> <path d="M1970 1351 c0 -15 30 -41 46 -41 8 0 14 -4 14 -10 0 -5 5 -10 10 -10 6 0 3 11 -6 25 -9 14 -23 25 -30 25 -8 0 -14 5 -14 10 0 6 -4 10 -10 10 -5 0 -10 -4 -10 -9z"/> <path d="M7153 1342 c-18 -10 -56 -30 -85 -46 -29 -16 -65 -35 -79 -43 -45 -23 -52 -37 -38 -81 6 -22 19 -42 28 -44 28 -7 195 9 236 23 22 8 38 19 35 24 -3 6 -45 10 -95 10 -111 1 -115 1 -115 20 0 12 76 74 135 110 10 6 16 18 14 27 -4 15 -6 15 -36 0z"/> <path d="M7721 1192 c-68 -5 -80 -27 -81 -140 0 -97 17 -162 43 -162 10 0 16 19 20 68 8 86 27 136 66 180 17 19 31 38 31 42 0 11 -29 15 -79 12z"/> <path d="M1895 1179 c-11 -17 1 -22 61 -27 45 -4 56 -2 52 9 -8 24 -101 39 -113 18z"/> <path d="M6930 1035 c-16 -20 -7 -40 27 -61 61 -37 104 -68 128 -90 40 -37 93 -44 67 -9 -4 6 -36 35 -72 65 -36 30 -78 67 -93 82 -33 32 -40 34 -57 13z"/> <path d="M4598 1034 c-14 -14 -9 -21 25 -35 24 -11 90 -14 264 -14 248 0 298 10 158 33 -95 15 -437 28 -447 16z"/> <path d="M4646 820 c-35 -4 -39 -8 -41 -33 -2 -49 11 -52 239 -52 238 0 266 4 266 39 0 13 -6 28 -13 34 -13 11 -384 21 -451 12z"/> <path d="M6960 600 c-30 -4 -370 -9 -755 -10 -652 -1 -804 -6 -699 -23 55 -9 2147 -6 2259 3 l90 7 -85 3 c-47 1 -224 6 -395 10 -170 4 -321 10 -335 13 -14 3 -50 1 -80 -3z"/> <path d="M1523 590 c-320 -3 -584 -8 -587 -11 -4 -3 38 -9 91 -12 133 -9 1416 -7 1478 2 l50 7 -35 7 c-55 10 -366 12 -997 7z"/> <path d="M2715 581 c-15 -6 -7 -9 30 -14 63 -9 2456 -8 2510 0 39 6 39 7 12 14 -37 10 -2526 10 -2552 0z"/> <path d="M7898 573 c12 -2 32 -2 45 0 12 2 2 4 -23 4 -25 0 -35 -2 -22 -4z"/> <path d="M2595 506 c-69 -16 -104 -34 -147 -75 -45 -42 -49 -73 -12 -98 21 -13 29 -14 43 -5 9 7 24 15 34 18 23 9 22 32 -3 36 -27 4 -29 22 -4 27 10 1 26 9 34 15 22 18 91 36 139 36 35 0 56 -6 90 -28 11 -6 -59 -66 -103 -88 -70 -35 -83 -17 -28 39 23 24 39 46 36 50 -10 9 -44 9 -44 0 0 -5 -41 -50 -90 -101 -91 -94 -112 -131 -90 -157 18 -21 33 -9 71 55 l34 59 55 -2 c50 -1 60 3 111 40 51 38 89 81 89 100 -1 22 -63 76 -97 84 -46 10 -54 10 -118 -5z"/> <path d="M5345 509 c-57 -11 -104 -32 -156 -71 -44 -33 -69 -36 -76 -8 -7 25 -39 26 -52 1 -8 -15 -27 -20 -91 -25 -76 -7 -81 -9 -78 -29 2 -17 11 -23 41 -25 20 -2 37 -6 37 -10 1 -13 -115 -112 -131 -112 -30 0 -28 13 6 52 54 59 40 96 -17 44 -27 -26 -38 -24 -38 6 0 27 -12 22 -60 -27 -26 -26 -53 -45 -66 -45 -12 0 -24 -7 -28 -15 -7 -19 -80 -21 -74 -2 3 6 19 13 37 15 30 3 32 6 27 30 -5 18 -4 23 3 13 11 -17 36 -9 50 17 15 27 -9 46 -47 37 -38 -8 -105 -76 -113 -113 -8 -38 6 -72 29 -72 11 0 40 11 65 25 27 14 49 20 52 15 10 -16 52 -12 59 5 9 25 31 17 43 -15 14 -37 41 -39 84 -8 l31 23 20 -28 c21 -28 46 -29 74 -3 6 6 22 18 35 26 12 8 41 31 63 50 23 19 43 36 45 37 3 2 0 8 -6 14 -8 8 -27 1 -67 -26 -31 -20 -59 -41 -62 -46 -7 -11 -44 -12 -44 -1 0 19 99 113 129 123 29 10 35 9 60 -15 34 -32 59 -33 89 -2 26 28 28 36 7 36 -8 0 -15 -7 -15 -15 0 -15 -12 -20 -23 -9 -8 9 34 54 51 54 7 0 23 6 35 14 29 18 87 30 87 18 0 -5 -43 -52 -95 -104 -92 -92 -104 -113 -89 -152 10 -25 22 -19 51 26 15 24 30 45 34 48 3 3 8 13 12 23 10 26 25 21 65 -25 86 -98 87 -99 134 -92 24 4 67 19 97 33 38 17 56 21 59 13 4 -14 32 -16 32 -2 0 6 7 10 15 10 8 0 15 -4 15 -10 0 -16 46 -12 60 5 17 21 40 19 40 -3 0 -38 46 -56 70 -27 16 19 59 19 66 0 9 -24 38 -18 70 15 39 39 70 40 79 0 7 -33 25 -39 45 -15 7 8 19 15 27 15 7 0 16 7 19 15 9 23 21 18 33 -15 12 -37 17 -37 53 -3 29 28 38 26 51 -11 4 -11 49 12 60 30 13 22 45 17 49 -7 5 -37 33 -46 70 -24 61 35 167 119 162 127 -7 11 -41 10 -48 -1 -13 -21 -118 -82 -132 -77 -22 8 -13 19 75 85 145 111 181 161 114 161 -49 0 -133 -67 -222 -178 -19 -23 -43 -42 -53 -42 -24 0 -23 16 2 42 11 12 20 28 20 35 0 22 -75 20 -101 -3 -22 -20 -39 -17 -39 6 0 11 -7 20 -15 20 -8 0 -15 -4 -15 -10 0 -19 -55 -89 -79 -100 -33 -15 -35 -8 -6 24 14 15 25 30 25 33 0 3 8 12 18 19 16 12 16 13 -1 20 -13 5 -28 -3 -51 -25 -40 -39 -56 -39 -56 -2 0 32 -20 45 -54 35 -12 -4 -50 -33 -85 -65 -58 -54 -101 -74 -101 -49 0 5 20 28 45 51 25 23 42 45 39 50 -10 17 -43 9 -70 -16 -31 -29 -44 -32 -44 -9 0 16 -11 16 -52 -1 -13 -5 -18 -2 -18 9 0 23 -17 20 -43 -7 -28 -29 -72 -57 -91 -57 -7 0 -17 -7 -20 -16 -4 -10 -16 -14 -38 -12 -39 4 -44 21 -8 28 14 3 40 14 58 25 25 15 32 26 30 45 -7 57 -112 7 -154 -72 -19 -36 -36 -35 -68 3 -31 36 -32 48 -8 55 87 28 152 79 152 122 0 39 -18 59 -65 71 -46 12 -70 12 -140 0z m163 -70 c4 -20 -95 -83 -145 -94 -45 -9 -43 9 5 52 36 33 37 34 17 49 -18 14 -14 15 50 12 55 -2 70 -6 73 -19z m812 -158 c0 -14 -18 -23 -30 -16 -6 4 -8 11 -5 16 8 12 35 12 35 0z m-325 -32 c0 -7 -8 -15 -17 -17 -18 -3 -25 18 -11 32 10 10 28 1 28 -15z"/> <path d="M4298 476 c-75 -25 -105 -43 -143 -83 -30 -33 -31 -44 -6 -67 15 -14 29 -16 60 -11 25 4 41 12 41 21 0 8 7 14 15 14 21 0 18 -10 -11 -45 -85 -100 -102 -126 -97 -145 7 -26 12 -25 53 10 41 35 56 37 65 10 9 -27 67 -27 120 1 47 25 125 97 125 116 0 8 7 16 15 19 8 4 15 14 15 23 0 9 7 24 15 34 12 16 11 23 -4 50 -42 75 -139 95 -263 53z m75 -43 c6 -6 -3 -16 -62 -67 -21 -19 -22 -19 -35 0 -14 18 -15 18 -21 2 -4 -10 -18 -18 -31 -18 -30 0 -31 17 -1 30 12 6 29 14 37 19 25 15 84 40 96 40 6 1 14 -2 17 -6z m125 -9 c49 -34 9 -104 -102 -178 -47 -32 -56 -32 -56 -5 0 21 -10 22 -60 7 -8 -3 -12 -3 -7 -1 4 3 7 10 7 17 0 7 26 37 58 67 31 30 65 67 75 82 20 31 51 35 85 11z"/> <path d="M3580 458 c-19 -12 -39 -28 -43 -35 -4 -7 -24 -13 -43 -13 -27 0 -37 5 -41 20 -7 25 -28 26 -45 2 -10 -14 -32 -21 -87 -26 -84 -7 -91 -10 -91 -37 0 -10 -5 -19 -11 -19 -6 0 -24 -10 -41 -21 l-29 -21 -6 21 c-5 20 -33 31 -33 13 0 -14 -144 -112 -165 -112 -13 0 -2 29 25 64 55 72 26 78 -46 11 -26 -25 -55 -44 -63 -43 -19 4 -27 28 -9 28 7 0 21 12 31 25 18 24 17 25 -5 36 -34 15 -83 -8 -152 -71 -50 -46 -59 -65 -46 -90 14 -27 23 -25 59 11 l31 30 9 -24 c11 -29 39 -27 67 4 24 27 40 24 53 -11 12 -37 35 -38 76 -6 26 21 32 23 46 10 14 -13 19 -12 42 6 34 27 45 25 49 -7 4 -37 37 -42 77 -12 l31 22 24 -26 c28 -30 48 -28 95 14 19 16 37 29 42 29 5 0 15 -13 24 -30 20 -38 43 -38 83 1 l31 30 20 -20 c12 -12 21 -25 21 -31 0 -25 87 5 117 40 11 13 17 11 43 -18 16 -17 34 -32 38 -32 5 0 28 14 50 30 23 17 46 30 52 30 5 0 16 -13 25 -30 9 -17 23 -30 31 -30 19 0 104 56 159 104 35 30 38 35 22 41 -11 5 -23 2 -30 -7 -7 -9 -20 -18 -31 -22 -16 -5 -18 -2 -13 26 4 32 -6 68 -21 68 -4 0 -27 -19 -52 -41 -79 -71 -86 -71 -92 0 -4 45 -18 48 -58 11 -46 -43 -106 -90 -116 -90 -4 0 -15 -6 -23 -14 -23 -21 -66 -25 -66 -6 0 9 11 16 30 18 17 2 35 9 40 16 6 7 18 15 28 19 13 5 17 15 15 34 -3 24 -7 28 -31 26 -15 -1 -44 -15 -65 -31 -54 -41 -140 -92 -157 -92 -8 0 -15 6 -15 12 0 16 66 76 111 102 19 11 45 30 59 43 14 13 27 23 31 23 3 0 11 11 17 24 7 17 7 27 -1 35 -16 16 -38 13 -77 -11z m-117 -84 c13 -13 -26 -60 -84 -101 -96 -70 -121 -52 -44 30 51 54 111 87 128 71z m-149 -33 c3 -4 -13 -23 -36 -42 -23 -19 -50 -42 -60 -51 -19 -19 -58 -25 -58 -9 0 5 16 28 35 51 19 23 35 46 35 51 0 11 77 12 84 0z m640 -85 c-16 -25 -57 -36 -68 -17 -6 10 23 39 57 56 29 14 35 -4 11 -39z m-154 14 c0 -18 -26 -40 -49 -40 -16 0 -13 21 6 42 21 24 43 23 43 -2z"/> <path d="M3006 415 c-27 -20 -13 -47 21 -43 22 2 28 8 28 28 0 29 -22 36 -49 15z"/> </g> </svg> 