<?xml version="1.0" standalone="no"?>
<!DOCTYPE svg PUBLIC "-//W3C//DTD SVG 20010904//EN"
 "http://www.w3.org/TR/2001/REC-SVG-20010904/DTD/svg10.dtd">
<svg version="1.0" xmlns="http://www.w3.org/2000/svg"
 width="1350.000000pt" height="603.000000pt" viewBox="0 0 1350.000000 603.000000"
 preserveAspectRatio="xMidYMid meet">
<metadata>
Created by potrace 1.10, written by Peter Selinger 2001-2011
</metadata>
<g transform="translate(0.000000,603.000000) scale(0.100000,-0.100000)"
fill="#000000" stroke="none">
<path d="M53 5963 c5 -27 29 -97 46 -138 5 -11 17 -42 26 -70 29 -82 140 -324
155 -335 3 -3 10 -12 14 -20 44 -93 252 -368 326 -431 65 -55 77 -62 86 -48 4
6 -1 16 -10 21 -9 5 -16 15 -16 23 0 17 -83 105 -99 105 -6 0 -11 5 -11 10 0
6 -11 23 -26 38 -14 15 -48 62 -76 104 -28 43 -57 79 -65 82 -7 3 -13 13 -13
23 0 10 -20 49 -45 86 -25 38 -45 75 -45 82 0 8 -7 20 -15 28 -8 8 -22 34 -31
58 -10 24 -23 51 -29 59 -7 8 -16 31 -20 50 -4 19 -12 41 -17 47 -6 7 -7 20
-4 29 6 16 8 16 24 0 10 -9 24 -16 30 -16 7 0 17 -9 24 -20 7 -11 17 -20 21
-20 5 0 39 -25 75 -56 37 -30 85 -69 106 -87 50 -41 66 -57 66 -65 0 -4 17
-18 37 -32 20 -14 49 -36 65 -50 15 -14 46 -38 68 -55 23 -16 52 -40 65 -52
12 -13 29 -23 38 -23 9 0 19 -9 22 -20 3 -11 11 -20 16 -20 6 0 30 -20 55 -45
24 -25 50 -45 57 -45 7 0 34 -19 59 -43 26 -24 60 -50 75 -58 15 -8 53 -30 83
-50 75 -49 121 -72 128 -64 9 9 -61 72 -183 164 -55 41 -104 80 -110 86 -5 6
-57 47 -115 90 -104 79 -241 191 -354 289 -32 28 -71 60 -86 71 -37 28 -245
213 -339 303 -52 49 -65 52 -58 15z"/>
<path d="M13305 5892 c-103 -100 -192 -179 -305 -273 -36 -29 -99 -82 -140
-118 -112 -95 -119 -101 -195 -161 -38 -30 -72 -57 -75 -60 -7 -8 -195 -155
-281 -220 -111 -84 -114 -88 -107 -95 6 -6 107 38 200 86 30 15 51 11 43 -8
-16 -39 -17 -53 -5 -53 14 0 110 69 148 106 28 27 15 38 -22 18 -36 -18 -57
-18 -82 0 -18 14 -16 16 28 36 26 11 50 25 53 30 3 6 15 10 26 10 12 0 19 7
19 20 0 11 7 20 15 20 8 0 15 4 15 9 0 5 28 32 63 59 209 168 263 213 367 304
36 32 86 76 111 98 49 43 76 50 86 24 6 -16 -4 -40 -48 -126 -10 -20 -19 -44
-19 -52 0 -9 -6 -16 -14 -16 -9 0 -12 -8 -8 -26 3 -20 0 -26 -17 -31 -12 -3
-21 -13 -21 -24 0 -18 -86 -151 -101 -157 -5 -2 -9 -10 -9 -17 0 -8 -13 -30
-30 -48 -16 -19 -30 -39 -30 -44 0 -5 -27 -41 -60 -80 -90 -107 -95 -170 -6
-80 56 57 187 231 248 330 73 118 130 230 173 337 17 43 29 72 54 130 15 36
51 148 51 160 0 25 -32 3 -125 -88z"/>
<path d="M6683 5491 c-18 -15 -33 -31 -33 -36 0 -5 13 -23 29 -40 37 -38 48
-73 27 -81 -18 -7 -64 19 -84 48 -18 24 -29 23 -58 -9 -45 -49 -46 -57 -12
-97 29 -34 68 -49 68 -25 0 19 44 48 73 49 37 0 35 -21 -8 -69 -19 -21 -35
-42 -35 -45 0 -15 66 -66 85 -66 20 0 52 27 69 58 4 7 -10 32 -35 62 -31 36
-39 54 -32 61 16 16 78 -7 97 -37 9 -13 24 -24 34 -24 20 0 68 67 64 89 -4 18
-52 71 -64 71 -4 0 -22 -13 -40 -29 -78 -67 -117 -63 -77 8 12 23 26 41 30 41
5 0 13 9 20 21 9 18 6 25 -23 50 -41 35 -55 35 -95 0z"/>
<path d="M6005 5370 c-331 -6 -1867 -23 -3119 -34 -311 -3 -522 -8 -528 -14
-6 -6 -5 -13 4 -18 7 -5 720 -11 1583 -14 864 -3 1575 -8 1580 -12 6 -3 215
-8 465 -9 418 -2 455 -1 458 14 2 9 -2 17 -10 18 -7 0 -107 0 -223 0 -115 0
-248 4 -295 8 -82 8 -80 8 60 9 80 1 216 5 303 9 156 6 157 6 157 30 0 20 -4
23 -37 21 -21 -1 -200 -5 -398 -8z"/>
<path d="M7024 5355 c-4 -9 -5 -18 -2 -20 2 -2 124 -7 271 -11 147 -4 266 -9
264 -11 -2 -1 -122 -5 -267 -8 -250 -5 -307 -11 -264 -32 11 -5 221 -6 499 -1
264 5 1176 12 2027 16 1533 7 1595 8 1566 37 -8 8 -500 15 -2008 27 -740 6
-1510 13 -1713 15 -331 4 -368 3 -373 -12z"/>
<path d="M901 5078 c25 -24 62 -52 82 -63 20 -11 37 -23 37 -27 0 -5 7 -8 15
-8 25 0 17 16 -27 54 -24 20 -50 43 -58 50 -23 20 -57 36 -76 36 -13 0 -6 -12
27 -42z"/>
<path d="M800 5038 c1 -7 12 -26 25 -43 19 -23 25 -26 25 -12 0 10 -7 20 -15
23 -8 4 -15 15 -15 25 0 10 -4 19 -10 19 -5 0 -10 -6 -10 -12z"/>
<path d="M8730 4890 c-14 -4 -42 -8 -62 -9 -58 -2 -175 -55 -236 -107 -71 -60
-110 -130 -143 -249 -17 -65 -19 -112 -19 -620 0 -458 3 -561 15 -608 8 -32
15 -66 16 -75 0 -9 11 -37 24 -62 13 -25 28 -54 34 -66 26 -57 138 -129 268
-173 88 -30 367 -31 458 -2 148 47 254 133 304 246 51 117 51 110 51 731 0
640 1 622 -63 753 -65 129 -195 212 -375 240 -82 12 -234 13 -272 1z m315
-136 c22 -9 52 -19 67 -22 44 -11 124 -81 152 -133 15 -26 35 -82 46 -125 18
-74 20 -114 20 -594 l0 -515 -25 -69 c-57 -157 -127 -224 -272 -262 -107 -28
-352 -12 -438 28 -100 47 -166 133 -191 251 -21 97 -20 1091 1 1170 39 148
129 241 265 272 81 19 325 18 375 -1z"/>
<path d="M8805 4676 c-52 -24 -117 -88 -141 -140 l-24 -51 0 -577 c0 -562 1
-578 21 -635 16 -42 35 -71 72 -105 62 -59 105 -75 157 -59 48 14 125 82 153
135 22 41 22 44 25 632 3 575 2 592 -18 638 -11 26 -36 67 -56 92 -65 79 -122
100 -189 70z m112 -118 c43 -48 43 -43 43 -662 0 -531 -2 -599 -16 -630 -37
-76 -134 -74 -174 5 -18 34 -19 69 -19 630 1 631 1 630 48 666 28 21 95 16
118 -9z"/>
<path d="M745 4870 c-4 -6 -8 -169 -9 -361 l-1 -350 -88 -2 c-52 -2 -93 1
-101 7 -10 9 -11 78 -5 326 3 173 9 322 13 330 15 38 -3 41 -255 42 l-244 1
-3 -966 -2 -967 251 0 251 0 -5 384 c-3 212 -8 390 -12 396 -4 6 -1 17 5 25 9
11 36 15 106 15 l94 0 0 -410 0 -410 243 0 242 0 2 428 c3 452 3 897 1 1227 0
110 2 214 6 232 5 20 3 34 -4 38 -7 4 -110 8 -229 9 -119 0 -223 5 -232 9 -11
5 -20 4 -24 -3z m-348 -153 c22 -22 31 -114 33 -317 1 -186 7 -217 55 -275 47
-58 81 -75 150 -75 92 0 156 43 193 130 17 39 21 80 27 290 3 136 11 249 16
255 6 6 53 10 105 10 144 0 134 30 135 -404 0 -196 0 -551 0 -790 l0 -435 -24
-23 c-20 -20 -34 -24 -93 -25 -85 -2 -108 5 -122 37 -8 16 -14 133 -18 313 -5
214 -10 295 -20 318 -8 16 -37 52 -64 79 -48 47 -53 49 -115 53 -56 4 -70 1
-110 -22 -25 -15 -45 -31 -45 -36 0 -5 -15 -23 -32 -39 l-33 -31 -10 -320 c-8
-267 -13 -322 -26 -335 -11 -11 -39 -16 -102 -17 -142 -4 -127 -99 -127 830 0
547 3 799 11 813 16 30 46 39 126 36 53 -2 77 -7 90 -20z"/>
<path d="M1361 4871 c-12 -7 -14 -41 -12 -173 1 -89 3 -523 4 -963 l2 -800
423 -3 c333 -2 423 0 427 10 9 29 10 378 0 381 -5 1 -84 0 -175 -3 -91 -3
-169 -3 -174 1 -4 4 -8 101 -8 216 l0 208 164 0 163 0 0 183 c0 111 -4 187
-10 192 -5 4 -75 4 -155 -1 -82 -4 -149 -4 -154 1 -10 10 -12 338 -2 347 3 3
80 6 172 7 l165 1 2 194 2 195 -390 0 c-214 1 -399 4 -410 9 -11 4 -26 3 -34
-2z m654 -145 c43 -19 60 -51 46 -89 -12 -32 -45 -47 -104 -47 -59 -1 -114
-29 -166 -85 -50 -54 -59 -87 -60 -230 -1 -115 11 -149 77 -213 62 -59 91 -72
164 -72 55 0 73 -20 63 -73 -6 -31 -8 -32 -90 -48 -81 -16 -86 -19 -143 -76
-70 -68 -75 -86 -68 -218 2 -49 5 -122 5 -162 1 -70 2 -73 46 -125 58 -67 96
-88 161 -88 69 0 105 -8 133 -29 20 -16 23 -24 17 -55 -12 -64 -39 -69 -329
-62 -136 3 -255 10 -266 15 -10 6 -22 18 -26 28 -4 10 -6 373 -5 808 1 789 1
790 22 812 21 23 26 23 255 23 181 0 241 -3 268 -14z"/>
<path d="M2511 4859 c-14 -37 -31 -141 -31 -191 0 -25 -4 -58 -10 -74 -5 -16
-14 -74 -19 -129 -11 -113 -27 -241 -42 -330 -5 -33 -14 -100 -19 -150 -5 -49
-14 -126 -20 -170 -6 -44 -17 -129 -25 -190 -8 -60 -17 -132 -20 -160 -2 -27
-9 -79 -15 -115 -5 -36 -10 -91 -10 -122 0 -31 -4 -67 -9 -80 -4 -13 -12 -67
-16 -121 l-7 -97 244 2 243 3 8 165 c5 91 12 169 17 174 11 11 167 12 178 2 4
-4 12 -83 17 -174 l10 -167 245 0 245 0 -3 60 c-2 33 -8 80 -13 105 -6 25 -14
79 -19 120 -5 41 -15 122 -24 180 -8 58 -19 140 -25 183 -6 42 -16 112 -22
155 -7 42 -15 106 -19 142 -10 96 -29 234 -46 327 -8 45 -14 101 -14 125 0 24
-7 68 -15 98 -8 30 -15 78 -15 105 0 28 -7 75 -15 105 -8 30 -15 85 -15 121 0
107 23 100 -345 103 -176 1 -330 6 -342 10 -18 7 -24 4 -32 -15z m580 -150
c36 -38 19 63 144 -869 9 -63 20 -142 26 -175 5 -33 14 -85 19 -115 39 -222
55 -459 33 -481 -15 -15 -110 -24 -158 -15 -43 8 -65 45 -65 109 0 51 -28 107
-82 166 -49 53 -66 61 -138 61 -74 0 -91 -8 -151 -70 -47 -49 -58 -76 -74
-187 -9 -56 -34 -72 -124 -74 -63 -2 -75 1 -97 22 -28 26 -28 26 -5 189 5 36
19 142 30 235 11 94 25 204 31 245 13 96 27 210 45 370 7 69 20 168 29 220 15
99 20 134 36 259 11 80 28 117 63 131 12 5 109 9 215 9 l194 1 29 -31z"/>
<path d="M2847 4553 c-14 -13 -6 -23 18 -23 28 0 34 15 9 24 -19 7 -19 7 -27
-1z"/>
<path d="M2803 4508 c-45 -63 -79 -211 -97 -424 -9 -104 -21 -216 -26 -249
-24 -148 -4 -225 76 -290 46 -38 52 -40 116 -40 l67 0 51 50 c72 71 79 110 56
295 -2 19 -11 105 -20 190 -9 85 -18 164 -21 176 -2 11 -7 45 -10 75 -11 96
-58 227 -80 222 -14 -4 -18 -286 -5 -396 6 -51 15 -155 20 -232 4 -77 13 -153
19 -168 6 -16 11 -46 11 -67 l0 -39 -92 2 -93 2 3 55 c2 30 8 80 13 110 12 62
27 299 35 563 6 171 2 198 -23 165z"/>
<path d="M3520 4851 c-4 -8 -4 -28 0 -45 13 -55 58 -394 70 -526 4 -47 12
-116 18 -155 18 -116 33 -234 43 -340 5 -55 14 -113 19 -129 6 -16 10 -56 10
-90 1 -34 7 -90 15 -126 8 -36 14 -87 15 -113 0 -26 6 -80 14 -120 8 -40 18
-118 21 -175 l7 -102 357 2 356 3 6 60 c4 33 14 114 24 180 10 66 21 152 25
190 4 39 12 102 18 140 6 39 19 124 27 190 9 66 21 152 27 190 6 39 14 104 18
145 9 93 27 218 46 330 8 47 14 103 14 125 1 22 7 69 15 105 8 36 14 83 15
106 0 22 7 61 16 87 28 84 39 80 -217 80 -125 0 -231 -3 -238 -7 -7 -5 -11
-46 -11 -114 0 -59 -7 -152 -15 -207 -8 -55 -15 -134 -15 -175 0 -41 -5 -106
-11 -145 -15 -108 -31 -405 -35 -670 -4 -238 -4 -240 15 -217 49 57 85 262
121 692 39 479 52 615 61 653 14 54 46 71 119 64 32 -3 63 -8 69 -12 18 -11
12 -102 -23 -356 -19 -134 -48 -350 -65 -479 -17 -129 -36 -264 -41 -300 -13
-85 -29 -211 -36 -280 -9 -96 -12 -114 -26 -168 -8 -32 -22 -59 -33 -65 -21
-13 -388 -24 -429 -13 -28 7 -71 97 -62 130 3 12 -1 46 -9 76 -8 30 -15 78
-15 105 -1 28 -5 70 -10 95 -5 25 -20 149 -34 275 -14 127 -30 257 -36 290 -5
33 -12 89 -15 125 -4 36 -15 126 -25 200 -10 74 -21 180 -25 236 l-7 101 29
22 c24 20 37 22 95 19 78 -4 95 -16 108 -75 10 -42 38 -382 46 -543 2 -52 8
-135 14 -185 5 -49 12 -130 16 -180 3 -49 12 -117 20 -150 7 -33 14 -78 14
-100 0 -61 48 -185 71 -185 20 0 -5 821 -30 995 -6 39 -11 111 -11 160 0 50
-7 143 -15 206 -8 64 -15 124 -14 135 5 51 16 49 -242 49 -196 0 -242 -3 -249
-14z"/>
<path d="M4819 4855 c-8 -54 -11 -1903 -4 -1915 7 -12 855 -15 855 -2 1 4 2
91 3 195 2 160 0 187 -13 187 -8 1 -93 0 -188 0 l-172 -1 2 213 3 213 160 0
160 0 0 190 0 190 -120 -4 c-66 -3 -138 -5 -160 -5 l-40 -1 -3 178 c-2 136 0
179 10 182 7 3 81 1 163 -3 83 -5 155 -7 162 -5 13 5 24 372 12 387 -11 12
-829 14 -830 1z m682 -144 c25 -31 25 -87 0 -101 -11 -5 -42 -10 -69 -10 -72
0 -111 -17 -169 -73 -42 -40 -54 -60 -63 -99 -13 -62 -13 -248 0 -283 5 -14
36 -52 67 -84 56 -57 60 -59 123 -66 71 -8 100 -26 100 -61 0 -36 -35 -61 -97
-68 -68 -8 -111 -33 -160 -93 l-38 -46 -3 -178 c-4 -199 -3 -201 67 -281 47
-53 76 -65 180 -72 106 -8 138 -45 91 -106 l-19 -25 -271 0 -272 0 -19 24
c-18 22 -19 50 -19 800 0 602 3 782 13 801 24 47 44 51 300 48 237 -3 239 -3
258 -27z"/>
<path d="M5762 4850 c-4 -8 -5 -442 -2 -965 l5 -950 209 -3 209 -2 -6 452 c-4
249 -10 495 -14 546 l-6 94 23 -4 c19 -2 26 -14 42 -68 10 -36 18 -76 18 -89
0 -14 4 -38 10 -55 5 -17 23 -89 40 -161 41 -175 58 -241 75 -296 8 -26 15
-54 15 -64 0 -16 6 -37 44 -161 9 -29 16 -60 16 -69 0 -10 8 -42 17 -72 l17
-53 208 0 208 0 -2 966 -3 967 -205 0 -205 0 -3 -273 c-3 -339 16 -700 38
-700 12 0 37 33 56 75 15 35 18 82 21 365 5 380 7 394 76 403 50 7 82 -10 100
-54 9 -24 11 -202 7 -804 -6 -889 3 -815 -99 -815 -42 0 -65 5 -83 19 -34 27
-69 125 -127 356 -62 245 -89 344 -101 370 -4 11 -11 37 -15 59 -3 21 -12 47
-18 57 -18 29 0 35 25 8 37 -39 95 -71 118 -64 25 8 27 35 2 35 -25 0 -42 19
-42 47 0 13 -7 51 -16 86 -8 34 -20 80 -25 102 -16 64 -39 147 -51 180 -5 17
-14 46 -18 65 -4 19 -13 49 -18 65 -20 59 -40 131 -47 162 -4 18 -11 35 -16
38 -5 4 -9 20 -9 36 0 16 -7 46 -15 66 -8 19 -15 45 -15 57 0 12 -6 30 -13 40
-12 17 -33 18 -216 20 -172 1 -204 -1 -209 -14z m293 -126 c36 -17 62 -65 91
-171 19 -67 29 -100 85 -283 22 -74 47 -160 54 -190 7 -30 16 -63 20 -72 4
-10 5 -18 3 -18 -12 0 -67 32 -78 45 -22 27 -61 18 -97 -22 -18 -21 -37 -51
-43 -68 -20 -63 -30 -221 -31 -510 -1 -165 -4 -311 -8 -325 -4 -14 -18 -31
-33 -37 -34 -17 -116 -6 -128 17 -8 15 -12 456 -10 1328 l0 264 29 29 c34 34
91 39 146 13z"/>
<path d="M7014 4861 c-2 -2 -4 -438 -4 -968 l0 -963 358 0 c368 0 495 10 565
46 16 8 35 14 43 14 22 0 132 114 140 145 4 16 13 40 20 54 11 20 14 89 14
288 l0 262 -27 58 c-36 75 -98 136 -162 157 -52 17 -171 22 -171 7 0 -12 50
-61 83 -81 52 -32 120 -104 141 -149 19 -42 21 -63 21 -241 0 -238 -12 -288
-82 -350 -78 -69 -99 -72 -453 -77 -305 -5 -316 -5 -340 15 l-25 20 -2 792 -3
792 30 30 30 30 296 -6 c168 -3 321 -11 355 -18 75 -15 132 -64 150 -129 14
-50 17 -235 5 -323 -7 -53 -13 -65 -56 -108 -26 -26 -51 -48 -54 -48 -12 0
-106 -74 -106 -83 0 -11 143 -3 193 11 56 15 104 56 127 109 19 44 20 62 17
268 -2 159 -7 231 -18 259 -23 62 -95 128 -169 156 -71 26 -15 24 -718 33
-107 1 -196 0 -198 -2z"/>
<path d="M9569 4860 c-6 -28 5 -1530 12 -1554 5 -17 9 -42 10 -56 0 -14 11
-45 24 -70 13 -25 28 -54 34 -65 13 -28 68 -86 116 -122 39 -29 77 -45 184
-77 76 -23 346 -23 416 0 74 24 128 45 145 55 8 5 25 13 38 19 36 16 107 93
129 141 72 155 72 158 73 993 1 400 -1 730 -4 733 -3 3 -114 5 -248 5 l-243 0
-3 -785 -2 -786 -31 -30 c-40 -41 -94 -43 -130 -5 l-24 26 -2 785 c-1 432 -4
787 -6 789 -6 7 -487 10 -488 4z m349 -157 c17 -19 22 -36 22 -81 0 -31 1
-338 2 -682 3 -620 3 -625 25 -665 41 -76 128 -145 184 -145 57 0 173 91 201
158 8 18 13 133 15 352 5 671 11 1056 18 1072 9 22 52 30 135 26 61 -3 66 -5
87 -37 l24 -35 -1 -645 c-1 -355 -5 -659 -10 -676 -4 -16 -16 -56 -25 -87 -20
-71 -79 -148 -137 -177 -24 -12 -50 -26 -58 -31 -36 -20 -128 -40 -189 -40
-85 0 -243 19 -256 31 -5 5 -17 9 -27 9 -29 0 -121 63 -156 107 -32 41 -57 99
-72 168 -5 22 -9 340 -10 707 l0 666 27 20 c24 17 39 19 103 15 63 -4 78 -9
98 -30z"/>
<path d="M10880 4865 c0 0 -1 -435 -3 -968 l-2 -967 210 2 209 3 -2 412 c-2
226 -7 447 -12 490 -6 43 -13 102 -16 131 l-7 52 31 0 c17 0 34 -4 37 -10 3
-5 10 -42 15 -82 5 -40 16 -104 25 -143 9 -38 20 -89 25 -113 5 -23 14 -51 20
-61 5 -11 10 -30 10 -42 0 -12 7 -47 16 -78 8 -31 21 -78 29 -106 7 -27 19
-70 26 -95 7 -25 15 -63 19 -85 5 -22 12 -53 18 -70 18 -52 34 -119 39 -163
l5 -42 211 2 211 3 1 925 c1 509 6 939 10 956 4 19 3 34 -3 38 -17 10 -412 11
-420 0 -13 -15 3 -758 18 -861 8 -51 17 -93 21 -93 4 0 17 14 29 31 35 49 50
188 50 485 0 248 1 263 20 287 38 48 124 45 152 -5 10 -18 12 -188 10 -813 -3
-737 -4 -791 -21 -808 -36 -37 -144 -34 -181 5 -20 21 -43 93 -75 228 -10 41
-28 109 -40 150 -12 41 -30 109 -40 150 -10 41 -30 115 -46 165 -29 89 -37
145 -20 145 4 0 25 -13 46 -30 22 -18 50 -30 66 -30 33 0 38 14 12 29 -44 25
-48 32 -54 93 -4 35 -14 90 -23 123 -10 33 -21 80 -27 105 -5 24 -14 49 -19
54 -6 6 -10 26 -10 46 0 19 -6 44 -14 55 -7 11 -16 34 -18 50 -3 17 -10 44
-16 60 -9 27 -19 60 -57 195 -7 25 -20 68 -29 96 -9 29 -16 59 -16 67 0 9 -5
19 -10 22 -8 5 -226 10 -410 10z m298 -150 c16 -13 34 -37 40 -52 19 -52 100
-308 116 -368 9 -33 23 -76 31 -95 27 -67 56 -180 50 -190 -9 -14 -32 -13 -42
3 -4 7 -23 19 -40 26 -50 20 -88 0 -120 -62 -30 -60 -31 -67 -39 -522 -7 -402
-6 -395 -89 -395 -95 0 -95 -1 -97 273 -4 582 4 1343 16 1367 21 45 127 55
174 15z"/>
<path d="M12130 4858 c0 -2 -1 -435 -3 -963 l-2 -960 410 0 c439 0 479 4 583
51 75 35 119 78 155 153 l32 66 3 625 c3 693 2 712 -61 833 -31 59 -108 131
-162 151 -100 36 -128 39 -542 43 -227 2 -413 3 -413 1z m795 -135 c142 -32
187 -66 230 -171 l25 -62 0 -627 0 -628 -28 -50 c-35 -64 -118 -112 -208 -120
-107 -8 -656 -5 -674 5 -10 5 -21 17 -25 27 -12 30 -2 1620 11 1632 9 9 323
19 469 14 72 -2 162 -11 200 -20z"/>
<path d="M12625 4631 c-16 -10 -48 -37 -70 -60 l-40 -42 -5 -222 c-3 -122 -3
-405 0 -628 l5 -406 38 -46 c20 -25 52 -55 71 -66 60 -37 159 -4 234 79 68 75
71 115 67 685 -4 547 -5 557 -78 634 -86 89 -158 112 -222 72z m114 -96 c17
-8 38 -34 50 -58 21 -44 21 -51 19 -601 l-3 -558 -37 -34 c-33 -30 -44 -34
-93 -34 -30 0 -55 3 -55 8 0 12 -1 1266 0 1280 0 17 84 16 119 -3z"/>
<path d="M7457 4616 c-77 -89 -77 -89 -77 -291 1 -195 1 -196 62 -263 61 -68
77 -74 139 -61 46 10 62 20 115 75 74 75 84 108 84 272 0 137 -20 183 -110
261 -55 48 -69 55 -114 58 l-51 4 -48 -55z m143 -69 c13 -7 35 -28 47 -46 21
-31 23 -45 23 -167 0 -152 -12 -191 -68 -218 -43 -21 -112 -21 -112 -1 -1 8
-1 107 -1 220 0 113 0 210 1 215 0 14 80 12 110 -3z"/>
<path d="M2100 4385 c0 -8 51 -55 60 -55 14 0 12 -14 -2 -28 -16 -16 -43 -15
-58 3 -7 8 -25 15 -41 15 -16 0 -29 5 -29 10 0 6 -7 10 -15 10 -8 0 -15 -3
-15 -6 0 -11 54 -49 118 -82 35 -18 70 -39 79 -47 8 -8 20 -15 28 -15 7 0 15
-4 17 -9 2 -5 15 -13 31 -16 61 -16 6 59 -67 89 -28 12 -36 20 -29 27 11 11
78 -2 116 -23 11 -5 22 -7 25 -4 12 13 -45 57 -122 96 -79 39 -96 45 -96 35z"/>
<path d="M7451 3876 l-66 -65 -3 -257 c-2 -178 1 -266 9 -285 15 -37 100 -116
133 -125 49 -12 96 5 148 54 97 90 101 102 106 302 6 231 -2 271 -71 347 -54
59 -112 92 -161 93 -21 0 -44 -15 -95 -64z m152 -62 c60 -29 67 -59 67 -279 0
-247 -10 -270 -125 -282 -39 -4 -53 -2 -56 8 -2 8 -3 139 -1 292 l3 277 39 0
c22 0 55 -7 73 -16z"/>
<path d="M3494 3615 c28 -25 56 -33 56 -15 0 6 -7 10 -15 10 -9 0 -18 7 -21
15 -4 8 -15 15 -27 15 -18 0 -18 -2 7 -25z"/>
<path d="M3498 3563 c-27 -7 -22 -20 10 -26 32 -6 37 -3 29 18 -7 15 -9 16
-39 8z"/>
<path d="M1906 3492 c-6 -10 47 -52 67 -52 7 0 22 -7 33 -15 23 -18 64 -20 64
-2 0 6 -20 20 -43 30 -23 10 -55 24 -70 32 -33 17 -44 18 -51 7z"/>
<path d="M3480 3365 c0 -9 9 -15 24 -15 13 0 29 -7 36 -15 14 -17 70 -21 70
-5 0 6 -8 13 -17 16 -10 3 -31 12 -46 20 -37 18 -67 18 -67 -1z"/>
<path d="M4105 3300 c-4 -6 7 -10 25 -10 18 0 29 4 25 10 -3 6 -15 10 -25 10
-10 0 -22 -4 -25 -10z"/>
<path d="M11390 3180 c0 -5 15 -10 34 -10 19 0 38 5 41 10 4 6 -10 10 -34 10
-23 0 -41 -4 -41 -10z"/>
<path d="M4570 3160 c0 -6 8 -13 18 -16 9 -3 30 -12 45 -20 33 -16 83 -19 92
-4 3 6 -2 13 -12 16 -10 3 -30 12 -45 20 -30 16 -98 19 -98 4z"/>
<path d="M3570 3061 c0 -5 7 -11 15 -15 9 -3 15 0 15 9 0 8 -7 15 -15 15 -8 0
-15 -4 -15 -9z"/>
<path d="M3570 2985 c0 -8 6 -15 13 -15 7 0 21 -9 30 -21 19 -21 38 -22 45 -1
2 7 -5 15 -15 19 -10 3 -22 12 -26 20 -11 18 -47 17 -47 -2z"/>
<path d="M4548 2934 c-15 -15 15 -34 54 -34 22 0 68 -8 102 -17 36 -9 71 -13
82 -9 16 7 10 12 -33 31 -52 23 -192 43 -205 29z"/>
<path d="M9550 2876 c-69 -34 -141 -71 -160 -81 -19 -10 -42 -21 -50 -25 -8
-4 -17 -15 -18 -25 -4 -19 10 -17 83 14 22 10 60 26 85 35 49 20 80 34 151 65
25 12 50 21 56 21 6 0 16 7 23 15 10 12 10 18 0 30 -20 24 -37 19 -170 -49z"/>
<path d="M11440 2905 c-14 -7 -61 -27 -105 -45 -44 -17 -87 -35 -95 -39 -8 -4
-42 -16 -75 -26 -33 -10 -98 -31 -145 -46 -46 -16 -92 -29 -101 -29 -9 0 -22
-6 -29 -14 -6 -8 -25 -16 -42 -18 -34 -3 -52 -28 -21 -28 22 0 151 29 178 40
23 9 88 27 155 41 49 11 116 29 197 53 28 9 58 16 65 16 10 0 112 37 126 46 2
1 -6 16 -19 33 -24 33 -48 38 -89 16z"/>
<path d="M3882 2863 c-17 -6 -5 -23 17 -23 10 0 24 -7 31 -15 7 -8 23 -15 36
-15 12 0 25 -4 28 -9 9 -13 89 -51 110 -51 9 0 27 -7 40 -16 13 -8 27 -11 30
-6 6 11 -47 52 -67 52 -8 0 -20 7 -27 15 -7 8 -21 15 -30 15 -10 0 -31 6 -47
14 -64 32 -103 45 -121 39z"/>
<path d="M4484 2825 c35 -31 209 -122 267 -140 13 -4 29 -11 34 -15 6 -4 25
-11 43 -15 17 -3 32 -11 32 -16 0 -5 10 -9 23 -9 13 0 32 -7 43 -15 24 -18 77
-20 72 -2 -3 6 -17 13 -32 15 -15 2 -30 10 -33 18 -3 8 -16 14 -28 14 -13 0
-26 4 -29 9 -4 5 -27 19 -54 31 -89 40 -137 65 -210 109 -55 34 -86 46 -120
47 l-47 3 39 -34z"/>
<path d="M2070 2843 c-41 -8 -44 -20 -8 -28 18 -4 67 -18 108 -32 41 -14 100
-32 130 -38 30 -7 80 -21 110 -30 30 -9 75 -21 100 -27 25 -5 49 -14 54 -19
13 -12 76 -12 76 0 0 12 -80 51 -104 51 -10 0 -30 6 -44 14 -15 8 -61 25 -102
37 -41 11 -108 32 -147 45 -80 26 -135 35 -173 27z"/>
<path d="M6957 2833 c-4 -3 -7 -22 -7 -40 0 -33 -1 -34 -30 -28 -30 7 -43 -8
-17 -18 9 -3 12 -17 9 -41 -3 -28 -9 -36 -24 -36 -17 0 -18 3 -8 15 15 17 6
48 -27 98 -31 45 -53 48 -53 8 0 -42 -16 -47 -35 -11 -27 52 -59 36 -57 -28 1
-20 -4 -42 -10 -49 -7 -8 -13 -56 -14 -113 -2 -113 -6 -125 -36 -109 -18 10
-20 18 -15 72 3 34 8 73 12 87 8 32 -15 66 -39 57 -15 -6 -16 -33 -14 -282 3
-236 1 -277 -12 -285 -26 -17 -49 -11 -56 14 -5 23 -7 23 -32 10 -24 -13 -29
-12 -44 6 -21 26 -38 25 -101 -6 -44 -23 -71 -28 -182 -35 -208 -13 -218 -15
-235 -52 -14 -31 -17 -32 -77 -32 -68 -1 -79 -6 -69 -31 5 -13 14 -15 46 -10
32 5 43 2 64 -18 33 -29 32 -40 -1 -64 -36 -27 -22 -45 28 -37 40 7 53 -7 28
-32 -18 -18 57 -23 117 -7 58 15 74 12 74 -11 0 -26 20 -26 32 -1 7 17 19 26
35 26 27 0 30 -18 9 -58 -9 -18 -13 -58 -12 -122 1 -100 7 -120 33 -120 12 0
13 5 8 23 -5 12 -8 40 -7 62 1 22 -4 54 -9 72 -11 35 2 73 25 73 7 0 21 9 31
20 26 29 32 26 49 -27 18 -56 21 -189 11 -448 -8 -187 1 -253 28 -226 13 13
15 367 3 416 -5 20 -2 26 18 31 35 8 42 47 15 90 -19 31 -20 44 -14 109 8 85
21 111 53 101 18 -6 22 -15 22 -47 0 -44 10 -49 40 -19 24 24 25 29 3 46 -25
19 -4 31 42 26 27 -3 37 -10 41 -28 3 -13 3 -31 0 -40 -5 -14 -7 -247 -3 -676
1 -144 -1 -170 -16 -186 -22 -24 -21 -29 3 -35 17 -4 20 -14 20 -54 0 -28 -6
-58 -15 -69 -21 -28 -19 -54 5 -54 24 0 25 -4 5 -34 -13 -19 -15 -43 -10 -123
6 -99 6 -99 -20 -111 -32 -15 -32 -30 0 -38 25 -6 25 -8 25 -104 0 -91 2 -99
21 -105 40 -13 44 6 30 137 -20 178 -20 323 -1 323 9 0 18 -16 23 -45 9 -43
11 -62 15 -192 1 -42 6 -58 16 -58 18 0 28 26 20 55 -8 34 11 39 40 10 26 -26
46 -26 46 0 0 27 21 27 46 0 23 -25 26 -37 27 -108 2 -64 5 -82 20 -91 31 -19
35 9 30 193 -7 197 1 291 22 291 21 0 30 22 13 31 -20 11 -35 134 -19 153 8
10 8 22 1 41 -6 15 -7 32 -3 38 4 7 7 25 8 42 0 25 5 31 26 33 l26 3 -14 42
c-8 23 -21 46 -29 50 -19 11 -18 46 1 53 8 4 15 17 15 29 0 15 8 26 19 30 16
5 19 12 14 43 -3 20 -10 39 -15 40 -14 6 -9 60 7 66 27 10 18 51 -14 63 l-29
10 3 136 c2 74 9 153 16 176 15 52 41 76 66 63 17 -9 126 -23 203 -26 34 -2
35 -3 38 -46 4 -52 15 -68 36 -51 11 9 12 18 3 40 -17 46 -4 62 41 55 25 -4
42 -2 46 5 12 18 34 13 47 -11 7 -13 13 -65 13 -122 1 -64 5 -101 12 -103 17
-6 21 35 13 118 -7 58 -5 78 7 96 18 28 50 30 59 3 8 -25 22 -26 30 -1 5 16
20 20 88 26 45 4 85 12 89 18 10 16 -10 37 -35 37 -18 0 -18 2 7 25 32 30 30
46 -8 56 -41 11 -57 29 -54 58 3 24 -1 26 -37 29 -22 2 -45 10 -52 19 -9 11
-23 14 -60 9 -26 -4 -54 -2 -62 3 -24 16 6 41 48 41 36 1 80 24 68 36 -4 4
-26 2 -49 -4 -24 -6 -115 -13 -203 -16 -88 -3 -175 -8 -193 -12 -32 -6 -33 -5
-26 20 7 29 -4 33 -39 15 -16 -9 -22 -9 -25 0 -2 6 -19 11 -37 11 -38 0 -46
19 -33 79 7 34 2 321 -7 416 -4 39 0 58 15 83 24 39 26 68 4 76 -19 7 -19 7
-27 -1z m-147 -264 c0 -11 5 -29 10 -39 6 -10 17 -79 25 -152 8 -73 22 -152
31 -174 16 -44 112 -144 137 -144 8 0 20 -7 27 -15 7 -9 20 -13 28 -10 7 3 29
-2 47 -10 24 -12 53 -15 116 -11 48 3 91 0 102 -6 11 -5 40 -13 65 -17 100
-14 38 -51 -85 -51 -41 0 -84 5 -96 12 -14 7 -58 11 -115 9 -87 -2 -97 -5
-145 -36 -107 -68 -124 -104 -126 -270 -1 -82 4 -137 14 -175 20 -69 26 -173
13 -214 -12 -36 -25 -169 -37 -381 -9 -152 -28 -231 -54 -223 -7 2 -20 21 -31
42 -16 32 -19 67 -21 259 -9 565 -16 814 -25 843 -10 30 -62 86 -110 118 -33
21 -136 22 -180 0 -63 -32 -199 0 -208 49 -7 36 175 74 300 63 l73 -7 61 45
c80 60 87 77 125 326 6 41 16 93 22 115 6 22 10 48 9 58 -1 9 5 17 13 17 8 0
15 -9 15 -21z m-130 -175 c0 -15 -6 -24 -15 -24 -16 0 -19 17 -9 44 9 22 24
10 24 -20z m10 -83 c0 -11 -4 -22 -9 -25 -12 -8 -34 21 -26 34 11 17 35 11 35
-9z m-5 -116 c0 -10 -6 -20 -12 -22 -8 -3 -13 5 -13 22 0 17 5 25 13 23 6 -3
12 -13 12 -23z m-515 -221 c0 -17 -22 -14 -28 4 -2 7 3 12 12 12 9 0 16 -7 16
-16z m691 -1395 c13 -68 18 -139 9 -139 -18 0 -50 69 -50 108 0 76 28 98 41
31z"/>
<path d="M10428 2832 c-1 -4 -34 -27 -73 -50 -67 -41 -148 -96 -190 -127 -10
-8 -27 -15 -37 -15 -10 0 -18 -5 -18 -10 0 -9 -26 -23 -80 -44 -8 -4 -28 -15
-45 -26 -47 -30 -107 -60 -123 -60 -24 0 -8 34 28 57 45 29 100 76 100 86 0
17 -74 -8 -130 -43 -53 -33 -169 -100 -174 -100 -3 0 -27 -13 -53 -29 -103
-63 -510 -271 -529 -271 -6 0 -106 -46 -146 -66 -14 -8 -31 -14 -37 -14 -5 0
-27 -11 -47 -25 -20 -14 -32 -25 -27 -25 21 0 129 23 138 30 6 4 44 17 85 29
41 13 91 29 110 36 19 7 64 22 100 33 97 31 132 43 165 57 17 8 58 23 93 34
34 12 70 25 80 30 44 22 152 71 159 71 15 0 313 153 324 166 6 8 15 14 20 14
8 0 70 41 169 110 45 32 160 141 160 152 0 10 -17 11 -22 0z"/>
<path d="M3030 2824 c0 -8 99 -104 135 -132 76 -57 158 -114 178 -122 25 -11
60 -32 67 -41 4 -5 193 -97 245 -119 11 -5 43 -18 70 -30 53 -22 109 -47 137
-61 10 -5 23 -9 30 -9 7 0 27 -7 43 -16 17 -9 62 -27 100 -39 39 -13 115 -40
170 -60 55 -20 114 -40 130 -44 17 -4 64 -19 105 -33 41 -15 90 -29 107 -33
18 -4 35 -11 38 -16 8 -12 42 -12 50 1 3 6 -5 14 -18 19 -14 6 -28 15 -32 20
-3 6 -14 11 -25 11 -10 0 -45 14 -78 30 -34 17 -65 30 -69 30 -9 0 -276 134
-385 193 -38 20 -98 53 -135 73 -38 20 -75 42 -83 48 -8 7 -40 25 -70 40 -83
43 -142 75 -175 96 -40 25 -72 25 -85 0 -9 -17 -8 -20 13 -20 33 0 87 -28 81
-43 -2 -7 9 -17 26 -24 32 -12 35 -19 21 -42 -8 -12 -19 -10 -68 9 -32 12 -67
32 -78 44 -11 12 -31 22 -44 23 -13 1 -31 8 -40 16 -9 8 -23 17 -31 20 -8 4
-40 25 -70 47 -116 86 -260 176 -260 164z m700 -359 c0 -8 -4 -15 -10 -15 -5
0 -10 7 -10 15 0 8 5 15 10 15 6 0 10 -7 10 -15z"/>
<path d="M3414 2817 c11 -7 37 -28 59 -47 37 -32 65 -44 172 -71 22 -6 63 -16
90 -24 28 -8 73 -19 100 -25 28 -6 77 -17 110 -26 33 -8 81 -19 107 -24 26 -5
56 -13 67 -19 11 -6 37 -11 58 -11 22 0 44 -5 50 -11 6 -6 21 -9 34 -7 21 3
19 5 -19 26 -23 12 -53 22 -65 22 -12 1 -33 7 -47 15 -14 8 -33 14 -42 15 -9
0 -29 5 -45 12 -15 6 -46 17 -68 23 -153 46 -283 87 -300 95 -20 8 -67 23
-172 55 -28 8 -64 15 -80 14 -26 0 -26 -1 -9 -12z"/>
<path d="M8814 2775 c-60 -30 -114 -55 -120 -55 -6 0 -17 -7 -24 -15 -7 -8
-23 -15 -35 -15 -12 0 -28 -7 -35 -15 -7 -8 -21 -15 -31 -15 -10 0 -22 -6 -26
-14 -4 -8 -19 -16 -32 -18 -14 -1 -26 -9 -29 -15 -5 -18 33 -16 52 2 8 8 25
15 38 15 13 0 33 7 44 15 10 8 25 15 33 15 8 0 43 14 78 30 34 17 68 30 73 30
6 0 10 4 10 9 0 5 12 14 28 20 35 15 71 36 85 50 6 6 19 11 28 11 10 0 21 5
24 10 16 27 -62 5 -161 -45z"/>
<path d="M9885 2784 c-27 -8 -75 -22 -105 -30 -75 -22 -201 -62 -285 -92 -38
-13 -83 -26 -100 -29 -16 -3 -37 -11 -45 -18 -8 -7 -32 -15 -52 -19 -21 -4
-38 -10 -38 -15 0 -4 -12 -12 -27 -18 -25 -10 -26 -11 -6 -12 12 -1 25 4 28 9
3 6 22 10 42 10 20 0 61 7 92 16 109 31 157 44 224 59 37 8 97 22 135 30 37 9
99 25 137 37 39 11 76 22 82 24 17 4 11 43 -8 55 -16 10 -11 11 -74 -7z"/>
<path d="M6603 2773 c-19 -7 -17 -63 2 -63 17 0 66 50 59 62 -6 9 -41 10 -61
1z"/>
<path d="M12858 2709 c-9 -5 -70 -15 -135 -23 -65 -8 -125 -17 -133 -20 -8 -3
-53 -7 -100 -10 -47 -3 -112 -12 -145 -20 -32 -9 -74 -16 -92 -16 -18 0 -41
-4 -51 -10 -9 -5 -60 -14 -112 -20 -52 -5 -144 -16 -205 -24 -106 -13 -262
-31 -355 -40 -193 -19 -407 -38 -520 -46 -169 -12 -371 -31 -389 -36 -46 -14
40 -23 334 -34 388 -14 711 -17 721 -7 11 10 -1 18 -37 26 -18 4 -34 11 -36
16 -5 16 68 43 135 50 35 3 76 11 90 17 15 6 50 12 77 14 186 10 242 18 325
47 25 9 79 18 120 21 41 2 113 9 160 15 46 5 86 8 88 6 8 -8 -51 -75 -66 -75
-9 0 -25 -8 -36 -19 -12 -10 -39 -27 -61 -38 -81 -42 -235 -113 -244 -113 -5
0 -14 -7 -21 -15 -7 -8 -19 -15 -28 -15 -8 0 -38 -11 -66 -24 -28 -13 -67 -29
-86 -35 -19 -7 -84 -30 -145 -52 -60 -21 -116 -39 -125 -39 -8 0 -28 -7 -43
-15 -35 -18 -87 -10 -87 15 0 17 80 105 103 113 7 2 9 8 5 12 -8 9 -298 -134
-298 -146 0 -9 26 -19 51 -19 15 0 19 -6 17 -32 l-3 -33 45 3 c46 4 71 9 175
37 33 9 78 20 100 26 22 6 44 14 50 20 5 5 15 9 23 9 8 0 28 6 45 14 18 8 63
24 100 37 37 12 70 26 73 30 3 5 14 9 24 9 11 0 46 13 77 29 32 16 134 66 227
111 92 45 218 112 280 149 61 37 132 77 159 90 31 15 47 29 47 41 0 24 -11 31
-32 19z"/>
<path d="M580 2699 c0 -22 12 -32 60 -57 25 -13 59 -32 75 -42 17 -11 39 -24
50 -30 11 -6 43 -24 70 -40 28 -17 77 -44 110 -61 33 -16 69 -35 80 -41 72
-40 197 -98 211 -98 8 0 14 -4 14 -10 0 -5 5 -10 11 -10 7 0 30 -9 53 -19 23
-10 61 -27 86 -36 25 -10 54 -21 65 -26 45 -19 231 -79 246 -79 9 0 30 -7 45
-15 16 -8 39 -15 52 -15 13 0 44 -6 70 -14 26 -8 83 -21 127 -31 44 -9 102
-21 129 -27 26 -6 74 -14 105 -18 31 -5 85 -13 121 -19 204 -32 217 -34 444
-56 135 -14 65 22 -119 60 -84 17 -142 32 -265 66 -41 11 -93 25 -115 31 -22
5 -54 16 -72 24 -17 8 -38 14 -46 14 -24 0 -163 58 -285 117 -62 31 -115 53
-119 50 -6 -7 37 -57 51 -57 4 0 17 -12 28 -26 12 -14 31 -30 44 -34 16 -6 22
-15 18 -25 -6 -13 -16 -15 -62 -9 -31 4 -71 13 -89 20 -17 8 -39 11 -48 8 -8
-4 -21 -2 -28 4 -6 5 -28 13 -47 17 -19 4 -41 11 -50 15 -27 14 -124 49 -153
56 -15 3 -30 10 -33 15 -3 5 -16 9 -28 9 -13 0 -29 7 -36 15 -7 8 -20 15 -29
15 -10 0 -26 7 -37 15 -10 8 -25 15 -33 15 -8 0 -22 6 -30 13 -9 7 -36 22 -61
32 -39 17 -104 53 -166 93 -10 6 -26 15 -34 18 -42 16 -58 28 -83 59 l-27 35
62 -5 c108 -6 224 -23 373 -53 55 -11 141 -23 190 -26 50 -4 110 -11 135 -16
39 -9 168 -28 320 -49 73 -10 29 -28 -80 -34 -46 -2 -70 -11 -70 -27 0 -19
214 -21 560 -6 201 9 403 17 450 19 48 1 85 6 85 12 0 10 -36 14 -300 35 -82
6 -184 15 -225 21 -41 5 -131 14 -200 19 -298 23 -706 72 -955 115 -113 19
-263 40 -425 59 -69 8 -140 18 -157 22 -25 5 -33 3 -33 -7z"/>
<path d="M4540 2480 c-9 -5 -6 -17 13 -47 28 -44 80 -89 145 -124 103 -56 187
-99 195 -99 5 0 25 -7 45 -16 21 -9 52 -22 70 -30 18 -8 43 -14 55 -14 13 0
32 -7 43 -15 10 -8 38 -15 61 -15 23 0 45 -4 48 -10 3 -5 15 -10 26 -10 10 0
19 5 19 10 0 6 -11 10 -24 10 -13 0 -26 7 -30 15 -3 8 -13 15 -23 15 -10 0
-31 7 -47 15 -15 8 -34 15 -41 15 -8 0 -26 7 -42 15 -15 8 -72 35 -125 60 -67
31 -106 56 -123 79 -14 18 -25 36 -25 41 0 4 24 5 53 2 28 -4 90 -11 137 -16
47 -5 104 -13 128 -16 24 -4 42 -4 42 2 0 16 -57 43 -90 43 -18 0 -62 6 -99
14 -36 8 -111 23 -166 32 -55 9 -130 25 -166 35 -36 9 -72 13 -79 9z"/>
<path d="M8870 2473 c-46 -15 -144 -35 -260 -53 -36 -5 -83 -14 -105 -20 -22
-5 -61 -10 -86 -10 -47 0 -74 -16 -61 -37 5 -8 38 -7 122 3 228 27 230 27 230
15 0 -6 -6 -11 -13 -11 -7 0 -23 -13 -35 -29 -11 -16 -50 -43 -87 -60 -36 -17
-93 -44 -128 -61 -35 -16 -73 -30 -86 -30 -12 0 -24 -7 -27 -15 -4 -8 -18 -15
-34 -15 -16 0 -35 -7 -44 -15 -8 -8 -23 -15 -33 -15 -10 0 -25 -4 -32 -9 -12
-8 -9 -11 14 -17 21 -5 31 -3 40 10 7 9 25 16 42 16 16 0 34 5 41 12 6 6 30
15 54 19 41 7 168 50 233 79 97 42 125 57 175 88 64 40 152 130 148 151 -4 21
-17 21 -68 4z"/>
<path d="M7323 2371 c-14 -12 -32 -17 -48 -14 -19 4 -25 1 -25 -11 0 -10 -14
-35 -32 -57 -17 -21 -29 -41 -27 -43 11 -11 76 33 89 61 13 27 19 31 43 26 20
-4 34 0 52 17 14 13 25 27 25 32 0 15 -55 7 -77 -11z"/>
<path d="M7123 2344 c-24 -27 -30 -54 -13 -54 6 0 15 11 20 24 5 13 15 26 22
29 9 3 10 8 3 15 -7 8 -17 3 -32 -14z"/>
<path d="M3236 2283 c-3 -3 -6 -10 -6 -15 0 -12 65 -74 127 -120 43 -33 57
-39 82 -33 16 3 32 2 35 -3 3 -6 24 -8 46 -5 27 4 64 -2 110 -16 38 -12 74
-20 79 -17 5 3 22 -1 37 -9 16 -8 44 -15 62 -15 36 0 149 -35 171 -53 24 -21
111 -37 301 -58 234 -25 533 -49 539 -43 2 2 -6 4 -18 4 -13 0 -34 9 -48 20
-19 15 -41 20 -82 20 -31 0 -74 5 -96 10 -22 6 -76 17 -120 25 -44 7 -145 26
-225 40 -80 15 -181 33 -225 40 -95 15 -172 31 -239 51 -26 8 -59 14 -72 14
-12 0 -25 4 -28 9 -3 5 -23 12 -43 16 -78 14 -299 97 -374 141 -3 2 -9 1 -13
-3z"/>
<path d="M10150 2252 c-104 -51 -112 -54 -350 -126 -25 -8 -81 -22 -125 -31
-44 -9 -107 -23 -141 -31 -33 -8 -72 -14 -85 -14 -14 0 -66 -9 -115 -19 -49
-11 -156 -31 -239 -45 -82 -15 -168 -31 -190 -36 -22 -5 -65 -10 -95 -10 -52
0 -80 -12 -80 -33 0 -10 235 0 300 13 25 5 97 14 160 20 123 11 253 41 279 64
21 18 97 36 201 47 47 4 105 13 130 19 25 7 62 14 83 17 20 3 37 9 37 14 0 5
9 9 20 9 11 0 20 -4 20 -8 0 -15 -84 -99 -120 -120 -36 -21 -86 -79 -76 -89 8
-8 71 24 141 70 81 54 163 124 263 222 115 114 111 131 -18 67z"/>
<path d="M5438 2123 c-31 -34 -67 -86 -92 -133 -10 -19 -31 -51 -47 -71 -16
-20 -29 -40 -29 -44 0 -10 -117 -163 -189 -245 -36 -41 -73 -84 -82 -95 -145
-172 -138 -165 -186 -165 -48 0 -83 -14 -83 -32 0 -6 -6 -19 -14 -27 -42 -49
-106 -197 -106 -247 0 -59 -136 -150 -301 -201 -10 -3 -32 9 -53 27 -29 26
-36 39 -36 69 0 20 4 41 10 47 5 5 14 30 19 54 14 67 56 172 91 225 11 17 23
37 27 45 7 17 60 87 83 110 8 8 37 45 64 83 28 37 53 67 57 67 10 0 20 59 13
84 -3 14 -18 27 -40 35 -31 11 -38 11 -55 -5 -20 -18 -119 -160 -119 -171 0
-6 -51 -70 -91 -114 -13 -14 -55 -61 -94 -105 -132 -150 -210 -226 -300 -293
-124 -93 -180 -124 -205 -116 -54 17 -75 82 -45 135 8 14 14 35 15 47 0 12 6
34 14 50 59 117 76 155 76 169 0 16 75 119 104 143 9 7 16 27 16 43 0 21 18
52 63 109 85 110 107 140 107 151 0 17 -49 58 -69 58 -13 0 -39 -25 -74 -72
-30 -40 -64 -84 -77 -98 -12 -14 -51 -69 -86 -122 -73 -112 -232 -285 -399
-437 -71 -64 -151 -115 -215 -139 -144 -52 -156 -54 -265 -56 -101 0 -113 1
-142 23 -64 48 -80 125 -53 258 24 121 56 200 126 308 150 235 467 463 572
413 21 -11 28 -21 30 -52 4 -45 -15 -95 -70 -181 -21 -33 -36 -66 -33 -73 3
-8 5 -18 5 -23 0 -4 13 -15 29 -23 28 -15 30 -14 64 17 37 34 97 138 97 167 0
10 7 34 15 53 29 70 10 140 -53 201 -47 44 -143 46 -252 5 -66 -25 -226 -138
-318 -224 -102 -96 -216 -253 -258 -355 -3 -8 -12 -28 -19 -45 -22 -50 -34
-97 -50 -185 -26 -148 -17 -211 42 -289 63 -84 110 -103 261 -108 144 -5 193
7 362 91 94 47 216 137 265 196 38 46 70 68 82 57 3 -4 -4 -41 -16 -82 -20
-67 -21 -81 -11 -126 15 -62 47 -102 99 -123 36 -14 44 -14 88 1 26 9 55 21
63 28 8 7 20 14 25 16 6 2 63 39 128 82 160 107 179 102 203 -50 22 -139 297
-139 442 0 l33 32 20 -24 c10 -13 19 -29 19 -36 0 -7 18 -31 40 -53 36 -36 48
-41 103 -47 166 -18 307 30 429 144 86 80 102 90 153 91 22 1 58 8 80 16 22 8
52 19 66 23 76 25 147 71 222 146 90 88 121 122 157 175 13 19 30 41 37 48 21
22 16 80 -7 87 -11 3 -20 11 -20 16 0 28 -38 -2 -118 -93 -146 -168 -266 -258
-343 -258 -60 0 -65 21 -46 167 20 144 27 218 32 348 2 55 8 111 13 125 5 14
10 46 10 72 1 26 8 61 17 77 8 17 15 35 15 42 0 6 14 28 30 49 37 47 38 79 2
113 -35 34 -42 34 -74 0z m-155 -531 c16 -14 18 -29 13 -117 -8 -184 -41 -357
-70 -377 -25 -17 -131 12 -201 55 -85 52 -92 67 -49 108 14 13 39 40 55 61 24
30 28 40 20 61 -8 21 -5 32 20 64 17 21 34 40 38 43 4 3 24 29 45 57 21 29 45
57 54 63 20 11 50 4 75 -18z m-355 -504 c30 -24 78 -54 106 -68 61 -31 80 -68
52 -99 -22 -24 -95 -61 -120 -61 -10 0 -49 -7 -87 -17 l-68 -16 -36 27 c-37
29 -68 78 -63 101 3 13 148 175 157 175 2 0 29 -19 59 -42z"/>
<path d="M11271 2121 c-15 -16 -38 -50 -52 -75 -41 -78 -198 -303 -257 -370
-32 -34 -95 -107 -142 -161 -117 -136 -128 -145 -171 -145 -41 0 -80 -26 -102
-68 -73 -139 -87 -168 -87 -183 0 -10 -17 -31 -37 -47 -58 -45 -173 -122 -183
-122 -5 0 -13 -6 -17 -12 -12 -20 -70 -47 -111 -54 -70 -11 -97 46 -58 121 9
17 16 35 16 42 0 6 6 24 14 40 8 15 21 46 29 68 25 65 26 69 36 85 5 8 17 35
27 60 10 25 24 52 31 61 7 8 13 23 13 31 0 9 7 21 15 28 8 7 15 20 15 29 0 10
7 26 15 37 20 26 19 106 -2 148 -18 35 -64 66 -100 66 -40 0 -171 -39 -223
-67 -62 -32 -197 -120 -206 -134 -10 -17 -51 -9 -73 15 -18 19 -21 31 -16 55
4 17 10 33 15 36 20 12 70 142 70 182 0 40 -29 84 -67 99 -34 15 -50 14 -169
-11 -53 -11 -288 -190 -410 -312 -58 -57 -78 -67 -111 -51 -43 21 -51 42 -29
83 18 34 19 37 3 71 -16 32 -20 35 -55 32 -33 -3 -39 -8 -63 -53 -14 -28 -33
-69 -42 -90 -10 -22 -26 -53 -37 -70 -11 -16 -24 -39 -29 -50 -26 -54 -125
-165 -192 -215 -83 -62 -124 -81 -187 -87 -46 -5 -82 15 -82 45 0 17 31 71 70
122 34 44 69 104 116 200 62 128 73 162 96 290 19 108 16 126 -27 170 -54 56
-82 54 -213 -9 -56 -27 -135 -109 -173 -179 -11 -20 -24 -44 -28 -52 -5 -8
-17 -34 -27 -58 -28 -68 -70 -78 -134 -30 -37 27 -66 19 -127 -35 -201 -178
-368 -430 -392 -591 -14 -92 0 -149 47 -198 20 -21 46 -38 58 -38 11 0 35 -5
52 -11 31 -11 59 -5 171 36 116 42 208 100 341 214 39 34 89 41 110 16 20 -24
154 -21 196 6 34 21 89 23 89 3 0 -6 -21 -35 -47 -65 -26 -30 -54 -62 -62 -71
-8 -9 -22 -28 -32 -43 -16 -25 -16 -27 3 -53 16 -21 30 -28 66 -30 l47 -3 142
148 c438 454 731 735 831 796 89 55 160 -15 108 -105 -23 -39 -80 -144 -113
-208 -12 -25 -34 -63 -47 -85 -14 -22 -41 -71 -61 -110 -40 -77 -73 -132 -156
-256 -30 -45 -54 -87 -54 -95 0 -20 55 -54 88 -54 24 0 44 16 112 88 133 141
154 164 202 227 83 109 312 320 413 382 54 33 133 66 157 66 74 0 75 -54 5
-193 -30 -58 -59 -123 -66 -145 -7 -22 -19 -53 -26 -70 -65 -145 -80 -193 -80
-251 0 -58 2 -62 40 -97 39 -36 42 -37 118 -37 47 0 90 6 105 13 15 8 45 23
67 33 47 22 121 70 151 96 26 23 52 14 60 -21 7 -33 31 -78 55 -102 46 -46 62
-50 192 -50 120 0 128 1 187 30 71 36 124 74 196 143 47 46 56 50 120 59 193
26 353 134 513 346 67 90 74 117 37 152 -24 23 -25 23 -55 5 -17 -10 -34 -27
-37 -38 -4 -10 -54 -67 -113 -125 -168 -169 -282 -222 -324 -151 -16 27 -17
34 -2 89 8 32 15 83 15 112 0 30 7 108 15 174 8 66 14 149 15 185 0 99 49 276
81 296 5 3 16 18 24 33 13 26 12 30 -16 64 -37 45 -53 46 -88 8z m-2867 -307
c17 -17 22 -99 7 -108 -5 -3 -12 -18 -15 -33 -7 -31 -13 -44 -87 -195 -28 -59
-60 -116 -71 -128 -46 -49 -118 -2 -118 77 0 57 41 177 83 248 68 111 112 155
157 155 16 0 36 -7 44 -16z m2722 -236 c14 -28 15 -44 5 -130 -6 -54 -11 -120
-11 -146 -1 -70 -33 -192 -54 -204 -28 -16 -105 0 -166 34 -75 41 -140 96
-140 116 1 9 21 42 46 72 24 30 65 82 91 115 114 146 144 175 179 175 27 0 36
-6 50 -32z m-3129 -66 c9 -11 11 -42 7 -112 -5 -71 -3 -103 6 -121 8 -13 17
-40 21 -59 5 -19 11 -47 15 -62 5 -23 -2 -34 -52 -81 -105 -98 -203 -153 -352
-198 -54 -16 -92 -4 -110 34 -11 23 -10 37 4 89 42 157 149 317 317 477 64 60
114 72 144 33z m899 -76 c8 -21 -21 -71 -55 -95 -16 -12 -32 -21 -35 -21 -10
0 -7 18 7 32 23 25 57 77 57 88 0 15 20 12 26 -4z m1829 -315 c33 -36 144
-111 166 -111 18 0 49 -35 49 -56 0 -47 -80 -88 -200 -104 -75 -10 -92 -9
-118 4 -66 34 -98 160 -51 202 12 10 35 38 51 62 36 53 58 53 103 3z"/>
<path d="M7725 1070 l-50 -18 41 -1 c23 -1 61 8 85 19 l44 20 -35 -1 c-19 0
-57 -9 -85 -19z"/>
<path d="M11025 2070 c-11 -4 -58 -16 -105 -25 -47 -9 -96 -21 -110 -26 -14
-5 -49 -13 -78 -19 -29 -5 -78 -17 -110 -26 -51 -15 -55 -18 -34 -27 16 -7 49
-5 115 6 50 9 139 23 197 32 58 9 120 21 139 25 33 9 81 45 81 62 0 10 -69 9
-95 -2z"/>
<path d="M3540 2003 c0 -17 110 -94 204 -142 64 -33 86 -38 85 -18 -1 23 -45
51 -213 133 -77 37 -76 37 -76 27z"/>
<path d="M5820 1930 c0 -5 9 -10 20 -10 11 0 20 5 20 10 0 6 -9 10 -20 10 -11
0 -20 -4 -20 -10z"/>
<path d="M4966 1871 c-11 -17 5 -39 45 -65 43 -29 71 -34 63 -12 -3 9 4 19 17
27 21 11 19 13 -40 35 -71 27 -77 28 -85 15z"/>
<path d="M5772 1853 c2 -17 9 -28 18 -28 9 0 16 11 18 28 3 22 -1 27 -18 27
-17 0 -21 -5 -18 -27z"/>
<path d="M4102 1840 c7 -11 27 -24 43 -28 47 -13 46 -48 -1 -68 l-37 -16 29
-23 c16 -14 36 -24 45 -25 9 0 40 -7 68 -17 39 -12 55 -13 63 -5 9 9 6 18 -12
37 -19 20 -21 27 -10 40 14 17 41 20 56 5 13 -13 36 4 29 23 -4 9 -21 19 -38
23 -18 3 -36 9 -42 13 -5 4 -37 15 -70 25 -33 10 -70 22 -83 27 -13 5 -30 9
-38 9 -12 0 -12 -3 -2 -20z"/>
<path d="M7927 1813 c-16 -16 -4 -23 41 -23 65 0 123 11 116 21 -6 10 -147 12
-157 2z"/>
<path d="M1225 1802 c-10 -10 -5 -42 7 -42 10 0 78 -37 172 -94 92 -55 323
-174 431 -221 58 -26 180 -73 200 -78 11 -3 45 -13 75 -22 55 -16 138 -38 215
-55 61 -14 105 -12 105 4 0 16 -21 26 -54 26 -12 0 -30 6 -41 14 -11 7 -47 18
-80 25 -124 23 -147 29 -158 40 -6 6 -25 11 -42 11 -17 0 -40 7 -51 15 -10 8
-30 15 -43 15 -14 0 -32 6 -40 14 -9 7 -38 21 -66 31 -27 10 -55 22 -62 27 -6
5 -49 28 -94 51 -46 23 -96 49 -112 58 -31 16 -53 46 -43 57 16 15 145 12 301
-7 94 -11 224 -23 290 -26 145 -8 155 -10 148 -35 -6 -22 4 -24 152 -20 121 3
268 56 203 74 -13 3 -113 11 -223 17 -431 22 -903 67 -1055 99 -30 6 -72 15
-92 20 -20 4 -40 5 -43 2z"/>
<path d="M12180 1794 c-14 -3 -45 -9 -70 -15 -52 -12 -224 -34 -425 -53 -164
-16 -275 -35 -275 -46 0 -24 76 -26 210 -5 125 19 269 19 294 0 11 -8 18 -16
15 -18 -2 -2 -23 -18 -45 -35 -23 -18 -49 -32 -57 -32 -15 0 -47 -36 -47 -52
0 -27 113 23 277 124 63 38 135 79 159 90 67 29 44 55 -36 42z"/>
<path d="M6020 1761 c0 -10 -7 -21 -15 -25 -8 -3 -15 -12 -15 -21 0 -8 7 -15
15 -15 12 0 15 -16 15 -85 0 -67 3 -87 15 -91 8 -4 15 -12 15 -19 0 -16 35
-29 50 -20 22 14 10 35 -21 35 l-32 0 5 75 c4 53 1 80 -8 93 -8 11 -11 31 -7
55 4 24 2 37 -6 37 -6 0 -11 -9 -11 -19z"/>
<path d="M7577 1758 c-10 -38 3 -68 28 -68 34 0 40 17 19 56 -21 39 -39 44
-47 12z"/>
<path d="M9034 1729 l-19 -22 30 7 c17 4 37 14 45 22 12 12 11 14 -11 14 -14
0 -34 -10 -45 -21z"/>
<path d="M6147 1716 c-10 -26 -8 -56 3 -56 16 0 22 24 12 50 -8 20 -9 21 -15
6z"/>
<path d="M6472 1705 c2 -14 8 -26 13 -26 6 0 11 12 13 26 2 18 -1 25 -13 25
-12 0 -15 -7 -13 -25z"/>
<path d="M7162 1690 c-15 -41 -15 -51 -1 -87 10 -26 12 -27 19 -8 11 25 11 84
1 109 -7 18 -9 16 -19 -14z"/>
<path d="M7342 1708 c-26 -26 -7 -62 26 -51 16 6 16 38 -1 52 -10 8 -17 7 -25
-1z"/>
<path d="M7286 1690 c-3 -14 -7 -65 -8 -113 -3 -87 -3 -88 25 -105 27 -16 29
-16 43 2 19 27 18 43 -6 49 -17 4 -20 14 -20 74 -1 38 -7 79 -15 93 l-13 25
-6 -25z"/>
<path d="M6085 1670 c-4 -6 -3 -16 3 -22 13 -13 23 4 13 21 -7 10 -10 10 -16
1z"/>
<path d="M10372 1661 c-20 -12 17 -18 218 -32 171 -12 230 -9 230 11 0 6 -12
15 -26 20 -31 12 -404 13 -422 1z"/>
<path d="M3075 1650 c8 -13 65 -13 85 0 11 7 0 10 -38 10 -33 0 -51 -4 -47
-10z"/>
<path d="M4672 1615 c-19 -41 -15 -54 21 -59 17 -3 48 -8 67 -11 51 -10 112
-7 124 5 16 16 -28 46 -103 70 -83 26 -95 25 -109 -5z"/>
<path d="M5507 1604 c-12 -12 4 -24 31 -24 15 -1 38 -7 52 -15 32 -18 133 -20
128 -2 -3 7 -26 13 -55 15 -29 2 -57 9 -63 17 -12 15 -81 21 -93 9z"/>
<path d="M8640 1591 c-37 -12 -88 -39 -96 -53 -10 -16 77 -3 117 17 46 24 30
51 -21 36z"/>
<path d="M6141 1561 c-14 -26 1 -53 25 -44 18 7 18 24 0 48 -13 18 -14 18 -25
-4z"/>
<path d="M7148 1553 c-16 -17 -16 -22 -4 -39 19 -25 28 -14 24 26 -3 32 -3 32
-20 13z"/>
<path d="M7469 1529 c-6 -12 -9 -36 -6 -53 3 -22 -1 -39 -14 -55 -25 -30 -24
-48 1 -56 32 -10 53 13 46 49 -4 17 -6 55 -6 84 1 57 -3 63 -21 31z"/>
<path d="M6235 1515 c-2 -5 -6 -42 -10 -81 -5 -57 -3 -73 9 -77 21 -8 26 1 26
54 0 26 3 54 6 63 12 31 24 16 24 -30 0 -32 4 -44 13 -41 10 3 14 56 8 118 -1
10 -73 4 -76 -6z"/>
<path d="M2367 1459 c22 -23 113 -40 113 -21 0 13 -73 42 -107 42 l-27 0 21
-21z"/>
<path d="M7140 1423 c0 -10 -5 -58 -10 -107 -11 -93 -4 -121 27 -109 12 5 14
18 8 76 -4 38 -7 87 -7 108 1 21 -3 41 -9 44 -5 4 -9 -2 -9 -12z"/>
<path d="M11405 1395 c-19 -15 -18 -15 15 -13 19 2 34 8 33 13 -3 17 -27 17
-48 0z"/>
<path d="M6420 1385 c0 -9 9 -15 25 -15 16 0 25 6 25 15 0 9 -9 15 -25 15 -16
0 -25 -6 -25 -15z"/>
<path d="M9193 1359 c-18 -5 -33 -14 -33 -20 0 -6 -10 -19 -22 -29 -13 -10
-19 -22 -15 -26 9 -10 157 63 157 77 0 11 -44 10 -87 -2z"/>
<path d="M2826 1352 c-3 -6 2 -13 13 -17 27 -8 36 -38 16 -50 -39 -23 -50 -34
-42 -41 15 -15 368 -27 451 -15 137 19 164 63 48 76 -31 3 -86 10 -123 15 -36
5 -117 14 -180 20 -63 5 -129 13 -146 16 -17 3 -33 1 -37 -4z"/>
<path d="M4535 1350 c-4 -6 7 -10 24 -10 17 0 31 5 31 10 0 6 -11 10 -24 10
-14 0 -28 -4 -31 -10z"/>
<path d="M10370 1323 c-37 -5 -73 -30 -64 -45 3 -5 -8 -13 -25 -19 -51 -18
-36 -29 38 -29 66 0 95 10 70 25 -7 5 -1 17 15 34 23 23 26 45 7 39 -3 0 -22
-3 -41 -5z"/>
<path d="M9777 1273 c-42 -11 1 -23 83 -23 96 0 131 7 108 21 -13 9 -159 10
-191 2z"/>
<path d="M7046 1253 c-12 -12 -6 -33 9 -33 8 0 15 6 15 14 0 17 -14 28 -24 19z"/>
<path d="M4440 1240 c0 -5 8 -10 19 -10 10 0 24 -7 31 -15 12 -14 50 -21 50
-9 0 3 -10 14 -22 25 -24 19 -78 26 -78 9z"/>
<path d="M7028 1169 c18 -6 35 -16 39 -24 6 -16 33 -21 33 -6 0 16 -49 41 -77
40 -27 -1 -27 -1 5 -10z"/>
<path d="M3910 788 c-14 -7 -41 -17 -60 -25 -34 -12 -34 -12 20 -7 174 17 193
21 185 34 -8 13 -114 11 -145 -2z"/>
<path d="M5821 785 c-18 -8 -44 -15 -56 -15 -12 0 -36 -7 -51 -15 -16 -8 -43
-15 -61 -15 -17 0 -34 -4 -37 -9 -4 -5 -30 -12 -59 -16 -28 -4 -56 -11 -62
-15 -5 -4 -35 -12 -65 -18 -114 -23 -202 -42 -209 -46 -14 -9 -155 -37 -281
-56 -153 -23 -611 -33 -631 -13 -9 9 -2 14 29 23 23 6 44 15 47 20 3 6 21 10
38 10 18 0 41 7 51 15 11 8 30 15 43 15 13 0 26 7 29 15 4 8 17 15 29 15 13 0
26 4 29 9 10 15 -32 20 -51 5 -10 -7 -28 -14 -40 -14 -12 0 -37 -6 -55 -14
-18 -8 -60 -22 -93 -31 -33 -10 -73 -23 -90 -30 -16 -8 -41 -16 -55 -19 -76
-16 -156 -39 -167 -48 -25 -20 -14 -30 25 -22 20 4 246 8 502 8 407 1 472 3
520 18 30 9 100 29 155 44 142 38 236 64 265 74 14 5 43 12 64 16 22 4 51 13
65 20 14 8 37 14 51 14 14 0 34 7 44 15 11 8 32 15 47 15 15 0 34 6 42 14 7 8
25 16 38 18 13 1 24 8 24 13 0 16 -37 16 -74 0z"/>
<path d="M9406 792 c-8 -13 17 -22 61 -22 20 0 59 -6 87 -14 110 -32 386 -59
386 -39 0 20 -52 36 -183 55 -172 24 -342 34 -351 20z"/>
<path d="M2440 775 c-19 -7 -57 -20 -85 -28 -85 -25 -65 -48 59 -67 157 -25
203 -30 230 -24 38 8 18 20 -48 30 -63 8 -107 44 -89 73 21 33 -5 39 -67 16z"/>
<path d="M8690 760 c0 -6 8 -13 18 -16 9 -3 29 -12 44 -20 14 -8 35 -14 45
-14 11 0 28 -7 39 -15 10 -8 28 -15 40 -15 11 0 29 -7 40 -15 10 -8 31 -15 45
-15 14 0 34 -7 45 -15 10 -8 28 -15 40 -15 11 0 29 -7 40 -15 10 -8 33 -15 49
-15 55 -1 63 -17 14 -30 -53 -15 -481 2 -624 24 -149 24 -267 45 -299 55 -17
5 -67 17 -111 26 -44 9 -101 23 -127 31 -26 8 -67 14 -92 14 -25 0 -48 5 -51
10 -3 6 -20 10 -36 10 -18 0 -28 -4 -24 -10 3 -5 14 -10 24 -10 9 0 23 -6 29
-12 7 -7 34 -18 60 -24 26 -7 72 -19 102 -28 30 -9 69 -21 85 -25 17 -5 66
-19 110 -31 44 -13 98 -26 120 -30 22 -4 54 -13 70 -21 23 -10 130 -13 485
-15 250 -1 479 1 508 3 68 7 63 26 -9 35 -65 8 -129 28 -147 45 -7 7 -30 13
-51 13 -20 0 -46 7 -57 15 -10 8 -26 15 -34 15 -8 0 -28 7 -44 15 -15 8 -36
15 -45 15 -9 1 -34 9 -56 20 -22 11 -48 19 -57 20 -9 0 -20 5 -23 10 -3 6 -16
10 -28 10 -12 0 -35 7 -51 15 -32 17 -86 20 -86 5z"/>
<path d="M3275 750 c-85 -6 -127 -22 -119 -44 3 -9 -6 -15 -26 -20 -19 -3 -30
-11 -27 -18 5 -17 135 -16 242 1 125 20 225 42 230 51 16 26 -145 42 -300 30z"/>
<path d="M6447 753 c-13 -12 -7 -43 7 -43 19 0 28 14 20 34 -7 17 -16 20 -27
9z"/>
<path d="M11023 725 c-17 -27 -19 -35 -7 -39 37 -14 179 25 158 43 -10 9 -95
31 -116 31 -7 -1 -23 -16 -35 -35z"/>
<path d="M10292 721 c-8 -4 -12 -12 -10 -17 1 -5 -18 -13 -44 -18 -59 -12 -62
-26 -5 -26 23 0 68 -4 99 -9 71 -12 129 -4 121 15 -3 8 -14 14 -24 14 -12 0
-19 7 -19 19 0 13 -10 20 -31 25 -43 8 -71 7 -87 -3z m58 -21 c0 -5 -12 -10
-26 -10 -14 0 -23 4 -19 10 3 6 15 10 26 10 10 0 19 -4 19 -10z"/>
<path d="M2963 643 c9 -2 25 -2 35 0 9 3 1 5 -18 5 -19 0 -27 -2 -17 -5z"/>
<path d="M6530 545 c0 -10 7 -15 18 -13 21 4 19 22 -2 26 -10 2 -16 -3 -16
-13z"/>
<path d="M6957 539 c-7 -24 -1 -39 14 -39 11 0 12 30 0 48 -6 10 -10 8 -14 -9z"/>
<path d="M6957 433 c-9 -8 -9 -96 -1 -117 14 -36 24 -12 24 54 0 64 -6 81 -23
63z"/>
</g>
</svg>
