 <svg  version="1.0" xmlns="http://www.w3.org/2000/svg"  width="300.000000pt" height="134.000000pt" viewBox="0 0 300.000000 134.000000"  preserveAspectRatio="xMidYMid meet">  <g transform="translate(0.000000,134.000000) scale(0.050000,-0.050000)" fill="#ffffff" stroke="none"> <path d="M5736 2472 c-249 -215 -262 -234 -134 -191 62 20 90 21 118 3 57 -35 160 99 232 301 38 109 48 114 -216 -113z"/> <path d="M49 2582 c75 -212 189 -351 261 -318 34 15 72 15 134 0 l86 -22 -62 54 c-185 162 -428 364 -436 364 -6 0 2 -35 17 -78z"/> <path d="M2970 2440 c-7 -11 -7 -28 -1 -38 6 -9 -1 -16 -14 -15 -14 2 -25 -6 -25 -17 0 -11 12 -19 26 -17 15 2 22 -9 16 -24 -12 -33 19 -57 49 -38 14 8 13 22 -3 41 -19 23 -16 27 14 23 21 -3 40 4 42 15 2 11 -15 18 -38 15 -33 -4 -37 0 -19 22 22 26 12 53 -19 53 -9 0 -21 -9 -28 -20z"/> <path d="M1740 2380 c-390 -6 -565 -13 -388 -15 177 -3 593 -11 925 -18 558 -12 603 -11 591 20 -10 28 -42 32 -215 28 -112 -2 -522 -9 -913 -15z"/> <path d="M3127 2372 c0 -30 1796 -30 1831 1 5 4 -252 7 -570 7 -318 0 -732 6 -920 13 -312 12 -341 10 -341 -21z"/> <path d="M339 2160 c-1 -5 -3 -77 -5 -160 -4 -135 -8 -150 -44 -150 -36 0 -41 15 -46 155 l-6 155 -104 0 -104 0 3 -425 3 -425 102 -6 102 -6 0 191 0 191 51 0 51 0 -4 -185 -4 -185 105 0 105 0 3 423 3 424 -105 6 c-58 4 -106 3 -106 -3z"/> <path d="M777 2165 l-172 -6 2 -425 3 -424 185 -6 185 -6 0 91 0 91 -80 0 -80 0 0 101 0 101 73 -6 c73 -6 73 -6 73 74 1 78 -1 80 -73 86 -120 10 -114 164 7 164 l80 0 0 90 c0 50 -7 88 -15 86 -8 -2 -93 -7 -188 -11z"/> <path d="M1111 2117 c-19 -115 -91 -724 -91 -773 0 -43 7 -46 105 -40 l105 6 6 75 c5 58 15 75 44 75 29 0 39 -17 44 -75 l6 -75 110 0 c62 0 109 9 107 20 -1 11 -27 202 -58 425 l-55 405 -125 0 c-69 0 -139 5 -156 12 -23 8 -34 -6 -42 -55z m196 -332 c12 -179 11 -185 -30 -185 -41 0 -42 7 -30 135 7 74 13 166 13 204 0 140 35 26 47 -154z"/> <path d="M3810 2162 c-105 -46 -120 -89 -127 -379 -10 -407 34 -490 257 -490 223 0 267 83 257 492 -7 267 -8 276 -61 328 -58 58 -242 86 -326 49z m170 -422 c0 -287 -2 -300 -40 -300 -38 0 -40 13 -40 300 0 287 2 300 40 300 38 0 40 -13 40 -300z"/> <path d="M1567 2131 c6 -15 30 -198 54 -405 24 -207 47 -387 51 -401 5 -17 55 -25 162 -25 l156 0 47 375 c25 206 51 400 57 430 11 54 9 55 -89 55 l-100 0 -12 -95 c-6 -52 -18 -205 -25 -340 -19 -342 -41 -305 -59 95 l-14 340 -120 0 c-95 0 -117 -6 -108 -29z"/> <path d="M2140 1730 l0 -430 190 0 190 0 0 90 0 90 -80 0 -80 0 0 102 0 102 70 -13 70 -13 0 91 c0 91 0 91 -70 91 -68 0 -70 2 -70 80 0 80 0 80 80 80 80 0 80 0 80 80 l0 80 -190 0 -190 0 0 -430z"/> <path d="M2560 1730 l0 -430 100 0 100 0 -13 245 c-14 289 7 294 72 15 25 -104 49 -206 54 -225 7 -27 31 -35 98 -35 l89 0 0 430 0 430 -92 0 -92 0 7 -210 c9 -263 -3 -263 -73 0 l-55 210 -98 0 -97 0 0 -430z"/> <path d="M3120 1730 l0 -430 155 0 c300 0 345 34 345 256 0 145 -23 189 -110 209 -34 8 -30 13 23 33 96 37 122 212 46 309 -40 51 -49 53 -250 53 l-209 0 0 -430z m276 286 c33 -33 30 -146 -5 -175 -45 -38 -71 -7 -71 87 0 110 25 139 76 88z m20 -428 c6 -103 -29 -167 -75 -139 -47 30 -25 254 24 247 39 -5 46 -20 51 -108z"/> <path d="M4260 1805 c0 -429 14 -467 176 -502 284 -61 344 30 344 520 l0 337 -110 0 -109 0 -6 -355 c-4 -319 -8 -355 -40 -361 -32 -6 -35 21 -35 355 l0 361 -110 0 -110 0 0 -355z"/> <path d="M4840 1731 l0 -431 89 0 90 0 5 245 6 245 60 -245 60 -245 95 0 95 0 0 430 0 430 -95 0 -95 0 7 -215 c8 -253 -8 -251 -78 11 l-51 194 -94 6 -94 6 0 -431z"/> <path d="M5400 1728 l0 -433 209 8 c310 12 311 13 311 410 0 432 -11 447 -331 447 l-189 0 0 -432z m296 25 c5 -252 -10 -325 -62 -308 -44 15 -28 577 16 571 37 -6 40 -23 46 -263z"/> <path d="M2031 1242 c23 -22 169 -84 169 -71 0 10 -153 89 -173 89 -8 0 -6 -8 4 -18z"/> <path d="M3000 1243 c-11 -3 -20 -26 -20 -50 -1 -35 -4 -37 -20 -13 -14 21 -19 -7 -20 -96 0 -120 -3 -127 -45 -122 -61 6 -236 -23 -282 -46 -52 -28 12 -96 90 -96 31 0 57 -9 57 -19 0 -11 14 -15 30 -8 20 7 30 -1 31 -26 2 -35 3 -35 17 1 8 21 35 41 59 45 l44 7 -5 -359 c-3 -197 1 -365 9 -373 8 -8 15 10 15 40 0 30 8 49 19 43 10 -6 24 -2 31 9 19 31 50 3 50 -45 0 -23 5 -37 10 -31 14 14 36 411 32 581 l-3 135 70 0 c43 0 71 -10 71 -25 1 -16 6 -18 15 -4 8 11 40 21 70 22 119 4 135 8 130 32 -13 65 -113 115 -231 115 -116 1 -129 18 -121 162 7 132 -10 152 -103 121z"/> <path d="M1560 1232 c0 -11 103 -41 210 -61 55 -11 54 -9 -11 16 -87 35 -199 60 -199 45z"/> <path d="M1440 1182 c83 -70 543 -264 619 -262 39 1 -541 286 -598 294 l-71 9 50 -41z"/> <path d="M4213 1187 c-54 -16 -94 -33 -89 -37 8 -9 240 48 254 62 18 17 -72 4 -165 -25z"/> <path d="M320 1157 c234 -144 541 -247 797 -267 146 -11 132 -2 -107 67 -221 65 -252 101 -90 105 141 3 396 30 328 35 -190 13 -679 66 -766 83 -59 11 -135 20 -170 20 l-62 0 70 -43z"/> <path d="M4450 1180 c-56 -14 -534 -258 -509 -260 34 -1 367 123 473 177 173 87 189 123 36 83z"/> <path d="M5446 1170 c-90 -14 -288 -36 -439 -49 -152 -12 -279 -26 -283 -30 -7 -7 197 -27 386 -37 l100 -5 -102 -50 c-76 -37 -116 -73 -160 -146 -32 -54 -103 -138 -158 -186 -55 -49 -114 -113 -131 -143 -38 -64 -154 -137 -179 -112 -9 10 9 75 42 146 89 195 43 252 -124 158 -88 -49 -115 -39 -83 32 61 132 -64 133 -224 2 -99 -81 -111 -84 -111 -30 0 63 -36 47 -78 -35 -41 -80 -110 -151 -166 -171 -57 -20 -60 20 -8 100 68 103 97 237 59 268 -42 35 -120 -7 -170 -92 -32 -54 -51 -68 -80 -59 -74 24 -246 -201 -233 -305 12 -103 105 -110 240 -19 99 67 228 70 185 4 -28 -42 -22 -71 14 -71 8 0 86 73 171 163 168 175 301 283 328 266 18 -11 -67 -190 -141 -299 -111 -163 -15 -142 138 30 106 120 207 200 250 200 22 0 10 -53 -42 -175 -73 -172 -14 -239 135 -151 56 34 59 33 89 -10 49 -69 193 -46 268 45 14 17 47 31 74 31 53 0 227 148 227 193 0 44 -32 31 -106 -43 -116 -116 -141 -99 -125 85 18 216 36 254 121 260 118 8 590 213 590 256 0 14 -95 7 -274 -21z m-1714 -414 c-14 -73 -64 -156 -92 -156 -33 0 -22 86 20 155 52 85 89 86 72 1z m1216 -83 c-1 -18 -3 -64 -5 -103 -2 -59 -10 -70 -51 -70 -89 0 -104 51 -41 141 55 80 100 95 97 32z m-1381 -78 c13 -94 -37 -162 -139 -187 -93 -24 -89 50 12 188 78 108 111 108 127 -1z m1293 -176 c0 -24 -92 -46 -130 -32 -36 14 -40 75 -7 108 25 25 137 -38 137 -76z"/> <path d="M2020 1104 c0 -31 93 -99 173 -125 88 -29 109 -13 28 21 -83 34 -77 65 9 49 118 -22 78 7 -44 32 -63 13 -126 28 -140 33 -15 6 -26 1 -26 -10z"/> <path d="M3854 1089 c-63 -13 -122 -30 -130 -39 -8 -8 15 -8 51 -1 83 18 86 -16 4 -49 -91 -38 -59 -44 46 -9 81 28 175 99 153 116 -4 3 -60 -4 -124 -18z"/> <path d="M1476 984 c26 -19 77 -59 113 -89 70 -58 120 -70 142 -34 12 20 157 15 339 -12 148 -22 -33 28 -211 58 -105 18 -245 50 -310 72 -104 35 -113 35 -73 5z"/> <path d="M4420 975 c-138 -53 -135 -50 -89 -85 53 -40 53 -40 151 49 100 90 92 95 -62 36z"/> <path d="M2373 885 c-74 -117 -194 -253 -236 -270 -21 -8 -53 -48 -70 -89 -36 -87 -79 -124 -142 -125 -69 -1 -39 110 66 249 35 45 49 82 40 105 -13 31 -18 30 -51 -15 -300 -401 -504 -439 -238 -44 32 48 52 97 45 110 -8 13 4 8 26 -11 42 -37 127 -48 127 -17 0 26 -127 66 -162 52 -15 -6 -58 -55 -94 -109 -148 -217 -347 -355 -454 -314 -118 46 19 342 191 413 76 32 91 17 59 -60 -33 -79 -8 -104 42 -43 43 54 49 124 14 159 -98 98 -380 -151 -408 -359 -29 -209 198 -243 400 -60 32 29 51 41 43 27 -57 -99 47 -164 152 -95 94 63 94 63 117 1 23 -59 105 -68 176 -19 24 17 44 22 44 11 0 -78 195 -65 270 18 20 22 56 40 80 40 57 0 166 76 206 144 53 89 11 88 -87 -3 -59 -55 -100 -78 -112 -66 -19 19 3 264 34 390 20 80 -21 69 -78 -20z m-24 -293 c-14 -97 -37 -111 -112 -70 -38 20 -39 23 -6 60 20 21 28 38 19 38 -10 0 4 23 30 50 62 66 87 38 69 -78z m-89 -163 c0 -46 -125 -69 -151 -28 -7 12 2 38 21 59 37 41 130 19 130 -31z"/> <path d="M4784 900 c-97 -23 -108 -46 -14 -29 87 15 166 49 110 46 -16 0 -60 -8 -96 -17z"/> <path d="M4010 880 l-60 -15 70 -1 c39 -1 88 7 110 16 53 23 -30 23 -120 0z"/> <path d="M540 798 c0 -28 363 -195 455 -210 93 -14 122 31 51 82 -30 22 -27 27 30 39 109 24 54 44 -160 59 -113 8 -244 21 -291 30 -47 9 -85 9 -85 0z"/> <path d="M5305 791 c-174 -29 -182 -35 -112 -81 54 -36 267 40 267 94 0 9 -2 15 -5 13 -3 -1 -70 -13 -150 -26z"/> <path d="M1290 580 c-7 -12 20 -20 70 -20 50 0 77 8 70 20 -7 11 -38 20 -70 20 -32 0 -63 -9 -70 -20z"/> <path d="M2450 318 c-77 -21 -189 -46 -250 -56 -109 -17 -109 -17 -25 -20 81 -2 362 64 425 100 44 25 7 19 -150 -24z"/> <path d="M4260 340 c28 -9 77 -16 110 -16 l60 1 -60 15 c-33 8 -82 15 -110 16 l-50 0 50 -16z"/> <path d="M1030 320 c7 -11 39 -20 72 -20 35 0 55 8 48 20 -7 11 -39 20 -72 20 -35 0 -55 -8 -48 -20z"/> <path d="M1410 320 c-33 -14 -27 -17 30 -18 39 -1 84 7 100 18 39 25 -71 25 -130 0z"/> <path d="M3970 300 l80 -37 -124 -2 c-68 0 -188 13 -268 29 -176 38 -201 27 -42 -17 81 -23 190 -32 355 -31 230 2 236 3 149 27 -49 15 -115 36 -146 49 -89 35 -92 23 -4 -18z"/> </g> </svg> 